ply
format ascii 1.0
comment PCL generated
element vertex 67
property float x
property float y
property float z
element face 0
element camera 1
property float view_px
property float view_py
property float view_pz
property float x_axisx
property float x_axisy
property float x_axisz
property float y_axisx
property float y_axisy
property float y_axisz
property float z_axisx
property float z_axisy
property float z_axisz
property float focal
property float scalex
property float scaley
property float centerx
property float centery
property int viewportx
property int viewporty
property float k1
property float k2
end_header
8.333333 -4.3333335 78.666664
7.0999999 6.1500001 75.099998
6.7777777 10.666667 76.888885
12 -11 88.75
6.4000001 -6.1999998 85.400002
14.33871 -4.3225808 86.6129
9 8 81
14.944445 5.3888888 85.541664
24 8 89
6.7857141 17 83.321426
12.432432 12.891891 87.162163
6 22 87.666664
10 20 89
9 -12 96
14.619047 -11.714286 93.952377
26.225275 -13.043956 98.609894
31.601124 -14.94382 98.151688
4.25 -6.5 94
15.365079 -7.4126983 92.777779
26.338255 -5.2536912 92.990601
30.851065 -8.1773052 96.496452
17.333334 2.6666667 92
25.763023 4.6741571 91.33606
30 6 92.555557
17.229507 16.508196 92.073769
24.127529 14.389622 91.543533
30 10.307693 92.846153
8.0952377 24.238094 91.619049
17.425198 24.204725 95.102364
21.501713 23.796232 93.618149
5.9000001 35.150002 97.199997
16.553656 34.961121 96.766716
20.464912 31.070175 96.675438
7 41 99
13.837736 41.599998 97.758492
5.6666665 -11.333333 106
14.428572 -15.428572 103
25.404625 -16.475916 101.40655
31.412699 -13.650794 100.63095
4.3333335 -6.3333335 105.33334
19 -3 100
31.6 -10 100
18 4 102
20.333334 0 105.66666
18 29 101
4.7857141 38.714287 103.64286
16.723404 32.19149 100.04256
5.7777777 41.222221 100.44444
11.048193 42.855423 100.06024
-11 -11 117.71429
-7 -11.3 117.6
-12.588235 -8.8235292 115.35294
-6.967742 -8.3225803 116.09677
3.3043478 -6.2608695 112.91304
24 7 112
23 11 112
-11 -11 120
-7.96 -11.76 121.88
0 -13 124
-11.076923 -9.6923075 121.53846
-5.1333332 -7.8888888 123.51111
4.25 -5.25 126.16666
5 0.5 125
8 12 129
-5.352941 -6.647059 131.94118
6.7142859 -3.4285715 131.14285
3 2 130.5
0 0 0 1 0 0 0 1 0 0 0 1 0 0 0 0 0 67 1 0 0
