ply
format ascii 1.0
comment PCL generated
element vertex 46
property float x
property float y
property float z
element face 0
element camera 1
property float view_px
property float view_py
property float view_pz
property float x_axisx
property float x_axisy
property float x_axisz
property float y_axisx
property float y_axisy
property float y_axisz
property float z_axisx
property float z_axisy
property float z_axisz
property float focal
property float scalex
property float scaley
property float centerx
property float centery
property int viewportx
property int viewporty
property float k1
property float k2
end_header
-72 -31 169
-70 -31 169
-73.720001 -27.639999 167.03999
-66.764709 -26.411764 167.29411
-57.75 -22.5 165.5
-56 -17.545454 164
-43.799999 -16.6 168.8
-53 -10 165
-44 -1 169
-47 9 169
-62 13 167
-85.192307 -34.26923 177.73077
-34.25 -18.75 178.75
-34 7.5 179
-46.688889 15.311111 173.77777
-84.75 20.25 177.75
-75.04348 22.956522 175.86957
-52.416668 22.333334 176.91667
-49.545456 21.181818 176
-45.92857 -42.57143 188.21428
-94.599998 -33.884209 184.21053
-87.71875 -37.9375 182.0625
-39.5 -32 182.5
-101.53846 -25.615385 187.61539
-98.695656 -28.608696 186.13043
-104.73684 -15.421053 187.57895
-105.94286 -2.8285713 186.45714
-105.29787 2.8936169 186.91489
-29 3.5 186
-40 20.5 182.5
-74.5 31.5 186
-64.300003 31 182.39999
-58.125 31.125 186.625
-61 -48.75 191.25
-53.357143 -48.07143 193.35715
-45.299999 -44.455555 193.93333
-39.714287 -41.42857 194.71428
-41.400002 -40 190.39999
-39.285713 -39.07143 190.92857
-103 -25 190.5
-28.611111 -27.555555 197.77777
-107.33334 -14.333333 190.83333
-107.85185 -5.185185 190.7037
-22.125 -3.875 198.625
-106.28889 5.688889 191.84445
-23.5 3.5 197.33333
0 0 0 1 0 0 0 1 0 0 0 1 0 0 0 0 0 46 1 0 0
