ply
format ascii 1.0
comment PCL generated
element vertex 73
property float x
property float y
property float z
element face 0
element camera 1
property float view_px
property float view_py
property float view_pz
property float x_axisx
property float x_axisy
property float x_axisz
property float y_axisx
property float y_axisy
property float y_axisz
property float z_axisx
property float z_axisy
property float z_axisz
property float focal
property float scalex
property float scaley
property float centerx
property float centery
property int viewportx
property int viewporty
property float k1
property float k2
end_header
-79.903229 120.80645 223.93549
-71.277779 122.72222 223.94444
-21.799999 122.4 224
-80 -105.66666 239
-72.5 -105 239
-52.75 -105.75 239
-7.787879 -107.63636 238.12122
-127.4386 -79.701752 237.08772
-139.3369 -66.010696 235.16577
-136.66667 -2.5833333 239
-136.87097 11.032258 237.6129
-128.28804 8.293478 238.125
54.655174 7.6896553 236.34483
-128.68713 20.400585 238.53217
-136.33333 34.666668 235.33333
-109 36.913044 238.84782
-96.173653 53.60479 237.80539
-106.49039 65.42308 234.42308
-53.906834 69.987579 237.62422
-105.54386 81.912277 232.70175
-96.958817 82.146622 233.00165
-106.66177 98.257355 228.64706
-97.045044 97.204201 230.01651
-82.061157 97.254547 231.15703
-67.631218 97.174957 231.80617
-52.516964 97.142166 232.87399
-37.575928 97.140739 232.05371
-107.11111 107 225.55556
-95.170135 109.60069 226.72223
-81.508972 111.50408 227.41435
-37.562389 111.77505 228.93849
-23.231464 111.29114 228.22784
-9.0380316 110.31096 227.34451
6.0583334 107.075 226.91667
-39.639343 121.93443 226.27869
-20.961538 120.26923 226.5
-66.514893 -96.965958 241.06808
-52.158077 -96.302406 241.08934
-38.981819 -96.277275 241.73636
-21.891891 -98.324326 240.87567
-11.384615 -97.051285 241.07692
-93.959457 -82.918922 240.45946
-85.870964 -32.935482 244.54839
25 -31 241.39999
34.25 -31 241.25
-124.25 -19.950001 240.14999
-86.374329 -21.834225 245.50267
-64.146446 -22.895397 246.69456
-52.438034 -22.846153 246.53206
-9.7280703 -26.342106 246.4035
31.272728 -29.09091 240.54546
-125.34028 -7.7638888 240.3125
-81.396553 -7.6063218 245.42529
-67.336517 -7.6276851 246.52028
-126.84 11.59 240.10001
-111.51111 9.0944443 241.37778
-96.735291 7.9201679 244.05882
-81.987236 7.0127659 245.87872
-67.474274 7.0917225 246.24832
-55.759689 6.2558141 245.91473
-112.19604 21.908911 240.72278
-97.097244 22.049541 242.44771
-82.011925 21.930418 244.332
-109.32743 32.902657 240.36284
-96.257645 36.054585 241.03275
-82.087212 37.079456 242.61627
-68.913841 36.955612 243.86945
-92.612244 47.367348 240.20409
-81.176872 48.860546 240.48639
-66.947227 50.923481 241.15831
-59.414635 54.902439 241.87805
-61.799999 61.25 240
-58.410255 62.256409 240.05128
0 0 0 1 0 0 0 1 0 0 0 1 0 0 0 0 0 73 1 0 0
