ply
format ascii 1.0
comment PCL generated
element vertex 35
property float x
property float y
property float z
element face 0
element camera 1
property float view_px
property float view_py
property float view_pz
property float x_axisx
property float x_axisy
property float x_axisz
property float y_axisx
property float y_axisy
property float y_axisz
property float z_axisx
property float z_axisy
property float z_axisz
property float focal
property float scalex
property float scaley
property float centerx
property float centery
property int viewportx
property int viewporty
property float k1
property float k2
end_header
-104.94846 -35.432991 147.10309
-87.85714 -34.122448 146.2449
-115.78378 -26.756756 148.08109
-107.55385 -26.553846 145.70769
-76.393936 -27.727272 144.48485
-113 -16.232557 145.09302
-98.5 -11 140
-112.58064 -5.2741938 145.95161
-98.25 -3.25 141.625
-108.96875 4.09375 146.875
-99.25 3.25 142.75
-81.666664 8.333333 146.33333
-103.17442 -42.372093 151.65117
-95.198021 -45.301979 153.64357
-76.450981 -45.196079 156.02942
-112.2381 -33.714287 150
-65.869568 -35.826088 153.82608
-121.72222 -21.888889 151.27777
-57.96154 -27.653847 155.96153
-121.33334 -18.666666 150.66667
-120 -20 150
-56.5 -15.642858 156
-79.75 21.75 156.75
-65.042015 -44.705883 163.96638
-59.454544 -41.590908 165.54546
-55.48148 -37.493828 167.34567
-50 -26.5 168
-48.892857 -15.428572 166.03572
-48.515152 -5.6969695 166.18182
-57.285713 11.142858 163.85715
-51.400002 -33 170.10001
-50 -31.25 170.25
-49.666668 -27 170
-47.25 -16 171
-46.666668 -5.3333335 171.5
0 0 0 1 0 0 0 1 0 0 0 1 0 0 0 0 0 35 1 0 0
