ply
format ascii 1.0
comment PCL generated
element vertex 32
property float x
property float y
property float z
element face 0
element camera 1
property float view_px
property float view_py
property float view_pz
property float x_axisx
property float x_axisy
property float x_axisz
property float y_axisx
property float y_axisy
property float y_axisz
property float z_axisx
property float z_axisy
property float z_axisz
property float focal
property float scalex
property float scaley
property float centerx
property float centery
property int viewportx
property int viewporty
property float k1
property float k2
end_header
-41.900002 -45.666668 79
-35.010639 -45.526596 78.957443
-4.8000002 -17.299999 78.099998
-65.44931 -44.24395 84.744934
-36.015896 -44.716557 81.217216
-27.430895 -43.569107 82.065041
-17.5 -41.416668 88.083336
-71.866669 -40 89
-88.095238 -21.619047 88.785713
-88.722221 -19.833334 88.944443
2.3448277 -13.534483 86.775864
1.9512196 -5 85.951218
0.83157897 4.936842 80.863159
-24.825001 -45.674999 92.675003
-19.333334 -43.833332 90.833336
-13.666667 -38.777779 92
-6.5 -35.166668 95.666664
-88.95652 -22.10145 90.95652
-3.5999999 -28.299999 92.800003
-92.117363 -14.948655 93.569679
-89.674416 -19.05814 90.767441
-94.687828 -5.9523811 95.796295
4.9714284 -6.1428571 91.514282
-94.024689 2.6790123 96.617287
-31 -50 100
-29.5 -49.5 101
-17 -43.5 102
0.5 -26.5 107
-95.012344 5.8395061 105.5
-90 -12 123
-88.75 -8.75 125.75
-89 4.5 126.5
0 0 0 1 0 0 0 1 0 0 0 1 0 0 0 0 0 32 1 0 0
