ply
format ascii 1.0
comment PCL generated
element vertex 32
property float x
property float y
property float z
element face 0
element camera 1
property float view_px
property float view_py
property float view_pz
property float x_axisx
property float x_axisy
property float x_axisz
property float y_axisx
property float y_axisy
property float y_axisz
property float z_axisx
property float z_axisy
property float z_axisz
property float focal
property float scalex
property float scaley
property float centerx
property float centery
property int viewportx
property int viewporty
property float k1
property float k2
end_header
2.4170341 -44.498672 -24.764961
9.3063965 -44.358601 -24.807518
39.517036 -16.132002 -25.664963
-21.132275 -43.075954 -19.020027
8.3011398 -43.548561 -22.547745
16.886141 -42.401112 -21.699921
26.817036 -40.248672 -15.681625
-27.549633 -38.832005 -14.764961
-43.778202 -20.45105 -14.979248
-44.405186 -18.665337 -14.820518
46.661865 -12.366486 -16.989098
46.268257 -3.8320031 -17.813744
45.148613 6.1048388 -22.901802
19.492035 -44.507004 -11.089958
24.983702 -42.665337 -12.931625
30.650368 -37.609783 -11.764961
37.817036 -33.998672 -8.0982971
-44.639484 -20.933453 -12.808441
40.717037 -27.132002 -10.964958
-47.800327 -13.780659 -10.195282
-45.35738 -17.890142 -12.99752
-50.370792 -4.7843843 -7.9686661
49.288464 -4.9748602 -12.250679
-49.707653 3.8470092 -7.1476746
13.317036 -48.832005 -3.7649612
14.817036 -48.332005 -2.7649612
27.317036 -42.332005 -1.7649612
44.817036 -25.332003 3.2350388
-50.695309 7.007503 1.7350388
-45.682964 -10.832003 19.235039
-44.432964 -7.5820031 21.985039
-44.682964 5.6679969 22.735039
0 0 0 1 0 0 0 1 0 0 0 1 0 0 0 0 0 32 1 0 0
