ply
format ascii 1.0
comment PCL generated
element vertex 68
property float x
property float y
property float z
element face 0
element camera 1
property float view_px
property float view_py
property float view_pz
property float x_axisx
property float x_axisy
property float x_axisz
property float y_axisx
property float y_axisy
property float y_axisz
property float z_axisx
property float z_axisy
property float z_axisz
property float focal
property float scalex
property float scaley
property float centerx
property float centery
property int viewportx
property int viewporty
property float k1
property float k2
end_header
31.204969 -14.354037 138.23602
-12 -41 148.8
-9.333333 -41 147.66667
15.333333 -33.166668 140.16667
40.588234 12.117647 141.35294
-15.983051 -41.389832 151.98305
-4 -31 151.25
20.222221 74.083336 156.5
14.653846 81.474358 157.67949
-73.854164 -22.479166 168.64583
-75.901962 -22 170.47058
-70 -22.142857 170
-74.937004 -14.594488 172.14174
-42.666668 -16.666666 172
-75.307289 -5.859375 176.23698
-67.164124 -6.0267177 175.69084
-86.49765 4.0751176 178.56807
-75.135132 4.2094593 178.43243
-93.106384 12.851064 178.65958
-88.111115 10.333333 178.77777
-103.4 27.200001 179
-95.6129 24.32258 179
-101.68421 32.815788 178.6579
-101.28571 57.523811 178.5238
-100 58 178.8
0.69999999 58.599998 170
-102.5 60.5 178.5
-100 62.111111 178.22223
-25.150375 64.5 177.78572
-6.4449539 65.174309 171.47707
-34.858154 74.581558 178.13121
-8.5625 74.076385 171.59027
-89.625 84.125 176.375
-35.687733 84.442383 174.7881
-26.223743 92.155251 171.35159
-68.244186 4.9418607 180.46512
-65.652481 15.003546 181.05673
-60 18.200001 181.5
-65.347595 24.229946 182.63637
-58.948978 26.295918 182.78572
-94.572311 34.350769 181.36615
-85.267242 34.303879 183.39009
-65.641243 34.550846 184.53107
-56.506756 35.091217 183.90878
-50 38.666668 184.33333
-93.288734 43.401409 181.03522
-85.368538 44.487068 182.65733
-75.538277 44.327751 184.58372
-65.138016 44.653751 183.61986
-55.186398 44.511333 183.74055
-46.830509 45.788136 183.71187
-39.272728 48.363636 182.81818
-83.968529 55.223778 181.50349
-75.520645 54.655964 182.98624
-55.742706 54.623341 182.79576
-45.613365 54.463009 182.65871
-36.094673 54.828403 181.81361
-28.821428 57.32143 180.25
-85.16832 62.663368 181.0099
-75.315216 64.260872 181.49185
-65.195656 64.379227 181.88889
-55.408108 64.683784 182.24594
-45.687004 64.60743 182.21486
-36.071091 63.838863 180.92416
-73.47541 73.295082 181.30055
-65.458679 73.305786 181.13223
-54.736061 73.899628 181.2565
-64.166664 80 180.16667
0 0 0 1 0 0 0 1 0 0 0 1 0 0 0 0 0 68 1 0 0
