ply
format ascii 1.0
comment PCL generated
element vertex 34
property float x
property float y
property float z
element face 0
element camera 1
property float view_px
property float view_py
property float view_pz
property float x_axisx
property float x_axisy
property float x_axisz
property float y_axisx
property float y_axisy
property float y_axisz
property float z_axisx
property float z_axisy
property float z_axisz
property float focal
property float scalex
property float scaley
property float centerx
property float centery
property int viewportx
property int viewporty
property float k1
property float k2
end_header
-53.84 -31.719999 133.96001
-62.82143 -23.598215 131.91965
-55.166668 -26.806452 132.79301
-84.910255 -1.9743589 130.08974
-71.333336 -8.1333332 128.2
-37.939392 -12.848485 129.09091
-24.555555 -2.7777777 129
-94.049561 10.166181 130.20992
-70.666664 3 126.16666
-14.444445 9.8888893 129.44444
-87.854546 25.054546 126.69454
-8.7522125 26.522123 129.65486
-81.540787 36.888218 125.74924
-75.352943 45.117645 125.35294
-68.697144 49.73143 125.92571
-24.572916 48.28125 126.66666
-52.085575 -49.050121 143
-111.589 -19.680628 142.16231
-122.8 -6.5999999 143.8
-112 34 135
-46.333332 -77.066666 163
-121 -30 150
-45.42857 -81.634918 166.96825
-22.804945 -84.498627 171.43681
34.56031 -52.066147 174.45135
17.111111 -84.481483 191.74074
6.4530611 -92.057144 195.71428
-142.09816 -79.791412 203.86197
22.891352 -82.902435 196.72063
-139.05173 -91.293106 220.46552
-152.64706 -77.352943 214.64706
-153 -72 210
-142.18182 -91.681816 225.95454
-151.60001 -83 226.2
0 0 0 1 0 0 0 1 0 0 0 1 0 0 0 0 0 34 1 0 0
