ply
format ascii 1.0
comment PCL generated
element vertex 28
property float x
property float y
property float z
element face 0
element camera 1
property float view_px
property float view_py
property float view_pz
property float x_axisx
property float x_axisy
property float x_axisz
property float y_axisx
property float y_axisy
property float y_axisz
property float z_axisx
property float z_axisy
property float z_axisz
property float focal
property float scalex
property float scaley
property float centerx
property float centery
property int viewportx
property int viewporty
property float k1
property float k2
end_header
-1.4873657 -23.641563 -55.056702
7.6515217 -12.91934 -56.306702
-1.2040329 -3.1748962 -59.14003
5.3383904 22.009951 -55.730942
4.3267365 24.089205 -54.050293
-15.5307 -40.448227 -40.880035
-1.1190872 -42.485649 -40.123901
-30.5707 -26.641563 -43.64003
-42.570702 -15.141563 -38.306702
-31.132214 30.69808 -39.554855
11.921881 31.129457 -48.172668
21.4293 23.413992 -50.862259
-14.210571 40.93132 -40.244537
-1.4631481 40.647148 -42.024475
0.15607643 -49.136101 -32.514343
37.166145 -38.702965 -23.482132
-40.1707 -28.208229 -32.040024
-50.806808 -10.41934 -28.473358
-51.258202 1.3167706 -29.967407
-11.0707 45.191772 -36.64003
-8.5706997 46.191772 -36.64003
14.771406 -56.860863 -12.797928
36.748451 -42.042274 -20.384705
-1.0706997 -59.308228 4.3599701
-41.570702 -41.326748 3.0266418
27.4293 -51.808228 -6.6400299
-54.570702 -23.808229 -2.6400299
-48.870697 -33.608231 -2.240036
0 0 0 1 0 0 0 1 0 0 0 1 0 0 0 0 0 28 1 0 0
