ply
format ascii 1.0
comment PCL generated
element vertex 30
property float x
property float y
property float z
element face 0
element camera 1
property float view_px
property float view_py
property float view_pz
property float x_axisx
property float x_axisy
property float x_axisz
property float y_axisx
property float y_axisy
property float y_axisz
property float z_axisx
property float z_axisy
property float z_axisz
property float focal
property float scalex
property float scaley
property float centerx
property float centery
property int viewportx
property int viewporty
property float k1
property float k2
end_header
-37.555557 -40 69
-24.111841 -39.848682 69
-17.485294 -37.544117 69
-9.666667 -31.666666 69
-4.3600001 -23.639999 69
-43.655174 -41 70.931038
-34.152866 -41 70.535034
-27.127659 -41 70.063828
-56.107086 -35.911484 72.045189
-9.4215689 -31.558823 70.205879
-66.211082 -26.30316 73.479126
-6.6584768 -27.125307 70.38575
-71.916786 -15.111665 74.623756
-1.4328358 -18.64179 71.029854
1.1015625 -14.460938 70.796875
-72.874405 -5.4647131 76.263161
-73.448807 4.5152187 77.363029
-73.959999 10 79
-66.27211 16.258503 78.993195
-64.609756 20 79
-83.478722 13.170213 88.095741
-67.062408 23.182875 82.07402
-86.883331 14.829166 92.95417
-73.027023 36.175674 93.166664
-69.328285 37.313129 91.505051
-94.148148 17.725925 102.82222
-95.881355 23.394068 107.18221
-81.5 38.5 104
-77.25 37.75 100.25
-97.854622 22.709251 112.72247
0 0 0 1 0 0 0 1 0 0 0 1 0 0 0 0 0 30 1 0 0
