ply
format ascii 1.0
comment PCL generated
element vertex 37
property float x
property float y
property float z
property float nx
property float ny
property float nz
property float curvature
element face 0
element camera 1
property float view_px
property float view_py
property float view_pz
property float x_axisx
property float x_axisy
property float x_axisz
property float y_axisx
property float y_axisy
property float y_axisz
property float z_axisx
property float z_axisy
property float z_axisz
property float focal
property float scalex
property float scaley
property float centerx
property float centery
property int viewportx
property int viewporty
property float k1
property float k2
end_header
82.545494 -57.556488 65.262779 -0.48930711 0.058986291 -0.87011445 0.010000573
102.56977 -19.59622 61.195457 -0.53118777 0.04225805 -0.84619957 0.0068490896
85.142067 48.910271 68.020561 -0.49117103 -0.019667663 -0.87084109 0.011640888
72.569771 -59.67955 75.362114 -0.48930708 0.058986478 -0.87011451 0.010000715
70.455139 49.11454 82.967934 -0.48992917 -0.022423098 -0.87147385 0.011730906
80.994019 45.917938 76.429176 -0.49117136 -0.019667432 -0.87084091 0.011641108
57.217392 61.832352 85.404976 -0.44789782 -0.047096822 -0.89284348 0.010230248
67.502304 57.524017 81.36512 -0.48182577 -0.029193671 -0.87578058 0.011476042
25.683105 -60.83622 100.56211 -0.4571636 0.057782672 -0.88750356 0.010112396
37.12952 -57.694756 98.021446 -0.46917176 0.065949522 -0.88064098 0.0093355924
47.581367 -57.204918 93.775154 -0.46917102 0.065949373 -0.88064134 0.0093344981
52.459339 -44.137253 98.424431 -0.46917108 0.06594938 -0.88064134 0.0093345353
56.643368 36.338844 99.108864 -0.44789729 -0.047096655 -0.89284372 0.010229619
64.06311 37.923782 93.262108 -0.45595056 -0.043927148 -0.88892043 0.01010984
39.637913 51.514275 100.23228 -0.41442406 -0.049983677 -0.9087103 0.013066566
53.844513 48.145966 96.518364 -0.44789788 -0.047096588 -0.89284337 0.010230285
64.553284 45.40493 90.895485 -0.47066554 -0.035929892 -0.88157982 0.010579462
26.741096 59.493164 100.56043 -0.3652865 -0.062566154 -0.92879027 0.012599885
38.107651 60.315392 96.948814 -0.41442382 -0.049983546 -0.9087103 0.013066702
8.3563461 -54.684952 106.21703 -0.44979325 0.050630391 -0.89169645 0.010861422
22.033653 -57.162758 103.999 -0.4497928 0.050629884 -0.89169675 0.010861188
7.6887436 -44.013729 112.02934 -0.4012554 0.027048765 -0.91556674 0.014369335
22.547035 -44.295643 109.55575 -0.44979277 0.050630096 -0.89169675 0.010861169
36.514957 -44.532516 105.2784 -0.45826393 0.057232432 -0.88697165 0.010217571
-22.587532 -28.640228 114.17765 -0.35253841 0.0064752605 -0.93577492 0.012275932
26.081188 -27.541426 113.86486 -0.43152556 0.041290838 -0.90115529 0.011161361
37.150021 -28.094986 110.96336 -0.45826414 0.057232581 -0.88697153 0.010217533
38.136379 31.627108 110.20388 -0.3766579 -0.061912365 -0.92428118 0.011969774
24.694527 46.459991 107.56626 -0.36528555 -0.062566862 -0.92879051 0.012599505
37.060238 46.059547 105.32351 -0.41442388 -0.049983706 -0.9087103 0.013066596
-6.4323044 60.165627 104.05039 -0.36528558 -0.062566467 -0.92879057 0.012599281
22.849693 59.273216 103.0817 -0.36528549 -0.062566847 -0.92879051 0.012599506
-1.1459732 -12.074748 119.48174 -0.35253724 0.006475342 -0.9357754 0.012275278
6.4768753 -17.75469 118.79107 -0.35253805 0.0064753834 -0.9357751 0.012275524
17.559357 -14.53372 117.76836 -0.35253921 0.0064752693 -0.93577468 0.012276179
-3.5913391 1.2260017 119.76211 -0.31737369 -0.019797204 -0.94809389 0.011063681
6.9031067 2.418066 119.84783 -0.31737441 -0.019797118 -0.94809365 0.011064028
0 0 0 1 0 0 0 1 0 0 0 1 0 0 0 0 0 37 1 0 0
