ply
format ascii 1.0
comment PCL generated
element vertex 1502
property float x
property float y
property float z
element face 0
element camera 1
property float view_px
property float view_py
property float view_pz
property float x_axisx
property float x_axisy
property float x_axisz
property float y_axisx
property float y_axisy
property float y_axisz
property float z_axisx
property float z_axisy
property float z_axisz
property float focal
property float scalex
property float scaley
property float centerx
property float centery
property int viewportx
property int viewporty
property float k1
property float k2
end_header
36.091736 82.710991 94.108315
17.686747 18.328232 36.842072
22.832945 11.562108 46.354549
73.971367 101.6945 48.521309
46.66378 52.521595 1.0871933
60.348324 5.5986881 70.161743
2.5916224 60.477684 68.724266
54.911247 60.03746 1.0896977
95.934029 46.709911 25.472015
102.15986 57.170319 68.193619
95.561874 67.303825 78.987411
79.462975 52.364769 97.554939
100.86984 72.581314 48.728882
75.528984 101.08641 51.518871
30.950085 95.864853 29.418657
72.115913 70.494438 98.673538
29.836439 26.392258 14.726131
9.038558 46.203041 24.553127
4.5773821 42.817719 34.607967
21.334938 38.387058 13.855631
45.017731 101.75567 73.872505
68.731575 96.075409 26.063873
20.575142 29.947542 86.875763
23.738243 72.764931 13.145585
73.645554 35.042751 96.554283
52.019329 2.0686975 53.484894
44.756596 13.020704 21.688948
66.13578 69.429306 4.9510403
4.3780746 33.510368 48.485786
13.911189 49.606987 88.374092
32.465553 79.235435 11.489841
64.120987 7.1683235 72.032974
36.578823 9.4609699 74.908356
84.383759 13.628017 46.603428
96.955902 34.838669 71.822166
10.90071 22.201626 49.441853
12.280655 29.86838 76.628769
86.624573 17.333311 66.571114
69.157288 99.381226 32.465153
87.426926 51.881138 14.622826
28.850023 35.939445 9.8583746
16.464005 23.933891 29.720945
91.871292 24.946661 35.919605
12.922256 46.441059 19.192427
71.218437 50.671413 101.70702
35.378857 47.116676 102.04912
14.20675 42.048168 19.27594
17.918339 40.19986 90.07695
12.912934 21.889313 41.140644
41.701908 47.240414 2.2974982
82.036713 15.661415 34.527493
79.935471 33.994164 13.815884
90.971336 50.223095 87.83152
8.1787148 25.770327 51.761177
11.200905 23.314798 63.39801
40.031563 25.890623 10.887122
70.681374 91.54052 21.177834
101.88016 42.319866 42.824871
21.116924 57.783234 95.10022
94.810555 63.343292 81.928841
24.404274 78.272583 15.625363
18.238369 52.59861 92.961372
25.656109 25.930353 17.951855
93.818863 23.837389 45.27948
62.832092 96.738083 24.195871
39.722046 93.682899 20.793434
62.12772 54.227692 1.6349449
53.304256 84.47963 95.723625
43.479595 13.617688 84.861183
46.623386 32.04821 100.09421
82.54187 88.996925 28.30118
77.286942 68.168106 96.651169
99.769447 75.800056 52.79327
85.502922 87.70414 30.433199
10.470781 30.235605 73.428047
63.552956 89.316368 90.273697
60.495464 11.553578 81.886177
18.154839 28.345333 22.833725
100.15571 38.575935 66.362015
63.235268 37.899132 101.54158
46.841335 73.19706 4.5536389
0.47266522 62.715561 50.1917
18.104044 43.07251 91.302826
98.231033 44.405479 75.431602
35.053234 93.49128 83.34726
26.065472 10.716723 65.527275
90.628036 43.531647 86.66214
31.305241 12.751926 77.017281
17.967127 94.031052 50.491554
38.737061 78.317474 8.4344969
20.173555 47.086624 12.311626
79.786987 10.352631 47.053524
32.748959 94.34729 80.777222
97.177933 60.864567 27.288157
50.556721 88.640167 92.456451
26.422003 86.898552 21.065512
84.858383 65.498466 13.71209
9.879591 60.810234 83.240654
77.837685 92.667725 77.455811
86.559593 37.991734 88.926971
84.998138 47.937809 12.85821
34.817181 94.433411 81.746506
91.225609 34.430546 24.623175
26.013584 90.574051 80.280083
37.909721 99.602249 30.725698
9.8315086 84.327553 45.807705
51.734581 73.133484 101.83962
71.962982 40.798561 99.597633
101.99304 39.541317 47.752769
91.461128 67.717331 21.469883
39.50703 15.023035 20.991211
94.846336 81.537552 65.772614
95.12516 84.196068 51.579941
98.884895 65.956635 32.947784
82.683144 86.80146 80.320518
96.911026 51.316956 26.45105
30.962553 95.851974 76.708626
48.589912 82.895996 96.83744
87.532684 16.918156 44.093479
8.1806288 35.952988 31.480974
13.168476 84.472801 35.066772
79.400856 19.857571 24.73702
33.353981 52.665577 4.2934179
82.882996 52.185181 10.901276
16.261492 19.797049 37.269394
55.73436 22.750746 94.514534
100.24932 44.046902 70.469521
44.695042 24.186045 10.968386
76.17128 22.841997 87.045898
21.875629 43.917889 94.412361
31.163475 81.856918 92.226624
99.072769 32.107353 59.373055
79.894325 55.505653 97.452957
0.9062745 43.998547 53.084145
24.237238 12.191986 39.70676
44.671944 9.1864252 27.876488
30.045477 21.278671 87.116951
12.022051 22.862577 41.258873
69.559685 5.0590878 51.10458
80.950066 45.24242 10.294419
12.151392 30.774191 77.452805
8.4201422 30.997261 36.254547
7.0303235 41.69178 29.461233
4.0038724 35.134335 46.338604
22.443142 14.432909 69.095406
20.072348 68.068375 91.962555
61.48267 93.273064 86.812592
87.658844 46.246185 15.666874
83.048409 94.480919 40.319893
20.251801 94.167656 65.010132
69.407745 18.217094 86.617172
10.340379 45.592052 83.382019
50.985008 15.441673 18.055485
26.49571 45.770462 8.2815504
96.501518 77.610779 37.994431
24.770601 28.689022 89.466286
32.415066 98.922195 71.983597
73.505089 7.7049093 63.341831
70.706802 10.238417 74.221809
45.785423 89.13942 91.525169
6.3569388 78.37941 61.210487
28.642796 96.007973 74.35305
14.604245 50.774521 16.816481
68.733742 4.6833062 51.601093
39.959103 32.505154 98.997253
55.855801 88.570053 13.566257
53.209564 9.0392609 79.191086
75.743843 99.775688 63.357609
85.964798 46.944935 13.869995
11.683563 38.247467 24.15451
31.391747 67.880569 99.144302
77.11483 90.072052 24.109739
87.920746 41.585991 17.156631
95.941475 27.558435 43.672298
3.0865049 50.902435 70.76857
7.2511082 79.979538 45.344208
94.598511 28.93342 36.327164
22.066925 56.931061 95.828629
82.588707 47.345642 94.861923
49.802406 7.3723097 75.772461
22.691843 53.770752 96.299484
46.08392 43.59494 2.2163301
64.301727 54.857136 2.1429012
81.30439 71.670532 13.365816
100.69463 55.251362 72.628914
76.248459 75.130814 94.527809
44.178333 101.41916 74.375374
11.521484 71.729477 81.097496
9.5953722 61.129951 23.374388
30.149443 8.9062748 39.144127
23.163794 10.884645 48.863808
92.210403 78.518463 29.581928
59.357845 23.739853 94.961266
79.246231 95.845039 69.682655
23.62734 58.025497 9.2027864
84.049416 62.62394 93.615883
48.609554 99.98687 27.823328
46.864616 12.545984 21.911766
15.171396 35.814114 85.081696
36.190094 94.805298 23.989481
1.3740313 66.335388 58.130474
4.6287665 36.316097 65.529884
3.3195014 71.134224 61.955631
19.093454 44.786896 13.504933
90.902039 32.976059 80.943169
38.046082 99.842628 74.876175
101.41357 46.353451 68.796799
58.427303 32.573429 100.2939
100.14145 37.086464 64.854416
27.634043 13.411682 31.439943
98.216125 64.346886 75.630852
20.720949 14.45436 40.114845
97.993881 45.648163 76.610168
2.0157614 61.235054 39.875793
62.197277 91.746834 88.301704
90.871727 68.024803 20.885643
10.617671 55.595798 84.784119
91.140511 20.475307 60.953285
84.427826 13.793032 59.234058
28.850437 59.15361 6.4418306
24.05982 63.138977 96.440704
49.812248 8.7293148 27.414761
95.624191 57.886639 81.686882
81.643913 13.524545 66.692192
39.078999 29.65358 97.296165
56.954834 81.453819 97.587257
45.913033 2.8845341 46.217896
55.517704 87.642525 12.884936
43.914101 42.542622 2.7619965
38.280869 38.076344 100.92279
42.491409 16.225979 87.459106
50.553051 89.116646 92.190712
68.223984 96.144455 25.956284
27.559067 40.495274 97.091743
29.759127 52.36187 100.3144
62.575764 29.759321 8.0471373
44.832176 87.146187 93.033127
64.916115 74.764297 6.5345907
18.464233 17.971334 70.161842
37.237003 7.1359649 69.868324
62.694061 86.088417 12.808314
53.884464 32.989563 100.68691
54.505573 95.193474 20.453705
82.010689 94.268532 37.459171
15.815112 50.512276 15.630762
4.4992285 44.528275 72.319244
32.550388 97.441452 75.25145
9.0807791 68.624611 79.26683
49.205559 88.691681 13.741524
10.221366 38.360264 80.076172
96.605972 43.649597 78.444847
28.012213 89.952614 82.918106
84.472908 47.453354 93.630898
11.114076 86.809158 50.661953
71.789459 92.486237 82.876663
43.715542 10.121854 26.269058
20.538942 94.123749 66.008812
18.880428 69.272682 15.618113
4.603229 71.720657 39.301548
2.2887905 38.585766 55.874336
39.637062 22.991793 92.940559
56.81852 78.117004 6.5842957
86.905098 91.209457 65.8731
74.866982 100.7595 61.003418
10.827725 25.471249 67.535172
46.933437 9.8252859 80.033699
2.8911836 39.085201 44.056496
92.903381 24.859653 38.643246
73.085152 31.336824 11.024545
90.60659 56.968739 17.790424
77.478127 98.698013 42.229969
33.497025 82.342316 12.900173
33.499714 29.102388 11.16896
95.47332 65.329605 80.107658
99.849976 59.897594 32.572784
4.1637506 66.151932 35.752743
98.774971 48.200848 75.77166
94.001259 23.132702 55.289856
6.0794449 78.235413 46.650791
99.376076 76.30555 49.507206
90.300652 20.194647 42.378517
74.859123 96.560707 74.04908
14.947626 89.325798 41.527859
19.473188 42.933823 13.751188
9.7187977 84.299133 46.741405
48.814014 98.689804 80.631767
36.926025 4.7241464 59.862312
52.909225 50.676308 0.80324501
3.4760981 38.264744 42.075802
86.959991 84.864288 77.190498
71.268311 89.067337 87.273033
37.503513 100.12634 32.560326
27.937269 94.536713 76.065086
47.937077 16.703136 16.845501
79.917885 27.099239 18.277231
56.280254 98.40844 25.291454
72.420685 79.676323 12.083666
99.183601 33.575153 43.304684
89.987808 85.842079 35.733463
30.764894 38.100582 97.895142
76.843483 26.7728 16.094725
101.27699 60.350174 36.606926
4.4923096 70.567413 67.38485
85.466209 46.681522 13.616559
55.898712 68.106911 2.7846019
63.050854 69.364723 4.1246271
44.505943 33.741394 100.49615
33.236595 17.50316 85.10965
18.671398 65.694107 91.598625
36.047527 77.90538 9.2461777
64.950577 28.459625 9.5266085
96.943161 62.999134 78.682304
95.818718 52.27039 24.289854
16.274748 34.156952 20.549528
5.2379231 74.258369 65.114273
74.669121 55.925407 100.18484
64.753784 75.057793 6.7639332
13.978552 90.041992 49.406178
30.767704 6.5696816 53.131439
49.567425 6.5772848 74.250656
75.877975 44.398342 7.5500016
19.154869 14.347933 60.537968
32.874374 6.199985 45.44553
18.510508 47.506302 13.599575
44.165295 98.756981 79.628525
24.059267 95.652748 68.4048
43.645161 100.23866 29.383553
69.699806 32.92783 97.428978
4.1856656 33.222942 52.68454
10.387107 25.06439 64.840118
53.577145 77.628868 99.829117
3.1621156 35.58794 53.672939
1.5453571 41.303532 55.734211
30.465136 8.4167376 40.665901
21.137234 96.162354 57.904259
15.910633 16.63135 52.996696
98.64698 36.159683 37.442608
97.107689 35.264759 34.32415
94.378723 76.024513 74.827568
26.25511 45.909603 97.854881
8.0164452 75.04097 33.763351
3.963274 73.531944 59.713776
28.924393 93.390419 79.23558
12.651023 34.48344 81.188385
31.946648 36.104851 97.862671
31.578085 93.820229 80.425728
22.569496 96.547089 62.712505
57.328812 23.608391 11.026444
92.874519 23.9683 40.850193
57.299622 9.5171804 79.600288
79.702278 20.791159 23.821062
11.856211 48.372108 20.284103
55.497887 80.424194 98.390327
39.513424 58.717297 2.5539684
41.670498 36.591129 101.21192
76.824623 90.2771 82.085121
16.531885 77.968842 22.899202
47.239674 5.4199958 70.758293
33.223244 26.74906 93.34153
19.972204 92.018295 70.093422
3.5504644 56.399105 33.796242
52.272804 30.422127 6.4395485
17.589048 22.042248 30.633545
96.530701 43.925858 78.407829
27.323509 10.097109 40.564594
59.735073 6.8443604 73.529694
98.360001 74.801224 66.739525
32.96529 97.022995 76.664665
38.929924 81.703339 95.650185
25.702881 31.717918 13.969559
0.6378594 45.403088 49.683041
59.155735 9.0481901 78.318527
15.222194 18.597582 63.111317
50.105949 78.709854 99.209167
18.315514 26.374403 24.386488
38.527328 92.363991 19.759499
81.704315 80.826653 19.010847
80.965439 20.219786 25.84379
62.884666 3.1864367 52.19149
93.077545 43.331245 22.427391
74.022919 91.309166 23.128523
65.760284 4.8687143 63.004333
78.700394 47.219456 97.60524
21.66893 44.23737 11.590592
21.984747 89.474625 77.428993
101.37617 56.38361 70.598572
20.000525 85.409111 80.21946
33.972824 83.800255 13.737823
82.29847 86.007423 81.867989
80.570213 48.236092 96.574135
49.176743 2.4248965 47.752563
86.217903 93.132408 44.358524
97.583015 29.152077 47.148075
71.572052 17.291735 21.56291
48.80793 95.083633 20.388857
8.5499649 80.237137 66.087456
37.154015 37.441441 100.15703
56.685749 57.366074 1.0318578
89.704315 18.538361 59.015362
4.531013 71.193672 67.236778
93.881554 71.214584 26.304214
82.03035 12.756963 42.571449
33.003456 81.790703 12.856891
36.179485 101.62943 68.735527
34.421085 92.524704 84.018875
20.146347 33.426491 17.20402
1.1924033 51.826447 64.54068
24.568836 47.039883 9.1471663
68.981789 5.3670697 60.10453
79.363045 11.219206 41.587616
64.538284 14.450659 84.398628
23.30673 36.420383 13.317683
23.050198 24.053965 21.927984
101.97656 70.155884 52.205624
4.1856737 33.560852 49.965885
39.011368 11.783009 25.463291
96.917053 79.219856 42.958885
21.988226 93.572998 36.046494
65.987328 9.1614685 75.641075
35.2159 5.3532071 45.578026
83.779366 71.238708 90.989906
14.306262 90.207664 48.362339
28.616131 40.818336 97.743996
60.450954 12.594499 22.530432
8.3921261 43.512653 26.548454
19.562635 37.346348 90.402588
45.691425 91.955765 17.201851
102.08395 65.744011 62.978668
29.301214 12.064287 32.580147
55.473709 28.391184 98.308388
7.5055971 33.027084 35.702869
36.276302 14.611642 83.047218
7.5818233 32.759148 70.099648
9.4133234 57.214294 22.779396
101.94666 66.639412 43.246876
8.9367895 64.942848 25.412859
49.39262 35.174564 101.55263
39.070148 100.71861 32.843994
3.0456431 63.174385 69.135872
18.778873 18.473272 34.448803
13.847936 80.762482 77.009674
49.678009 18.616766 15.056498
26.850378 82.643204 16.946522
6.0272536 79.20858 54.758121
55.907917 29.267838 7.3974218
35.935452 4.8946595 58.688313
29.47357 74.844994 95.566277
65.548576 97.774078 26.986528
4.391932 41.47641 70.229141
77.407173 78.840157 14.282239
98.655266 32.374187 43.814777
74.503387 16.045418 25.405386
54.778549 23.456554 10.87532
21.538147 16.319775 34.333084
47.93692 92.091118 17.132032
77.710625 49.772736 98.343895
80.028496 76.480606 91.331795
88.027695 73.278603 86.005447
97.044296 33.794979 35.783958
97.654327 78.511063 44.687408
80.236382 10.31813 55.618137
96.371475 82.104126 57.007721
1.0553026 65.586655 56.421459
76.629211 45.565506 98.380196
17.263666 23.171005 29.65727
97.831207 65.519173 75.851669
86.030029 30.597689 21.254328
1.7782903 54.347187 38.655102
48.970863 94.381256 86.658318
99.164909 55.078381 30.227654
7.857563 33.450775 34.489697
9.2191782 25.321367 45.108089
25.912018 99.575203 57.026005
43.114826 20.118418 91.501671
94.949471 82.899384 62.015045
92.173439 46.405712 85.725555
45.025303 87.880615 13.619693
81.692383 97.372055 52.856194
71.331734 96.563171 28.799778
67.991318 5.15136 61.605591
10.135801 50.037212 22.229427
71.137756 6.3569317 61.616604
5.9060655 67.017746 74.353966
44.226242 23.816912 11.242734
86.335457 50.940269 13.62993
2.8680847 43.512081 38.874176
81.926231 92.221764 32.53524
35.199257 77.815056 96.601761
74.703552 94.948891 76.949593
59.506321 15.032406 19.379395
77.650139 90.159897 24.919609
94.565315 39.012489 79.556656
77.822624 80.269127 15.604181
0.017536212 49.194324 54.791122
94.063789 37.317413 26.722775
8.5394258 70.055428 77.5942
17.354336 33.181293 20.079521
24.783037 63.511009 9.4796038
72.667511 21.105761 87.677071
79.070862 77.072433 14.446757
48.542721 28.704145 7.4843335
38.70134 74.769714 6.7077713
22.908791 97.648598 49.18298
46.101074 61.704254 1.6061279
67.346191 41.757515 4.6339912
84.012932 47.133057 93.808792
3.7582819 65.527634 69.752785
68.6549 24.776726 92.775085
85.223213 31.95006 19.438704
11.281723 37.935734 24.818798
97.458908 41.246803 75.563591
31.72621 102.38483 50.859009
8.5863733 32.927448 33.21809
71.631935 69.611137 99.226776
73.834412 31.413521 11.478207
71.146416 63.55048 100.91918
9.3354073 76.317696 32.190876
71.79216 100.54255 38.701008
37.789009 4.2586694 58.236732
85.595383 71.950294 16.878016
1.0018045 62.2281 61.678986
85.301025 15.414651 63.577419
2.1916516 43.406887 64.280037
73.260963 95.057999 78.343712
9.8869238 67.944359 80.694733
75.611687 17.379166 24.433662
98.920006 32.29269 45.032791
90.767105 51.187599 18.048225
39.233589 15.865191 20.133051
90.806938 59.238125 87.79908
35.828098 97.321648 77.93779
89.55513 89.761505 44.544811
16.733234 76.300461 84.605309
93.200058 76.446526 29.253359
39.256718 19.601337 89.97905
75.562576 7.6372743 53.720539
77.570961 42.09338 97.020592
71.640045 87.208374 88.879646
68.878632 8.9207916 33.173729
52.587852 3.2700534 41.518589
53.572598 75.458282 100.80096
67.583321 17.179729 86.528336
93.525879 44.308125 83.436432
79.013969 97.461853 40.832333
21.179075 75.081757 89.761269
16.973814 44.007446 15.796562
93.419785 34.615208 27.838799
87.81456 32.542141 21.728172
82.072174 70.789993 92.74926
57.645145 73.168816 101.57133
37.907478 27.755833 10.387619
90.276924 73.390671 83.199936
38.178944 7.1557741 70.662941
99.277527 42.324963 34.133263
50.617233 86.684532 94.26387
20.480921 54.208637 11.447131
72.256195 100.56445 38.878582
28.830185 42.930298 98.536751
65.503395 17.782574 18.280214
69.802017 23.832033 14.36137
98.787743 70.410324 35.656689
63.013847 4.6151652 40.873795
87.261429 28.290972 81.582382
54.087608 2.1243801 56.714714
87.622818 91.272316 63.187428
41.441101 101.95911 34.31152
0.9875527 58.380646 63.24152
63.117558 14.416818 21.011799
23.364672 91.030716 76.666153
93.609871 28.968691 71.980225
1.8984702 51.887318 38.615822
99.78598 33.307953 47.989883
92.702492 21.37752 52.711098
6.2731094 30.640781 44.164021
82.796791 12.812294 61.173252
101.79124 40.177505 61.201199
13.767858 82.857635 31.465137
50.169441 55.208443 0.73935699
25.798092 99.477669 55.523228
36.953259 97.437477 27.344246
52.037296 100.5036 28.505678
94.084206 24.38098 45.03693
31.870506 12.268553 76.500023
67.889168 36.574154 99.553001
97.098633 27.707199 55.389393
70.301201 100.1408 70.406654
40.453304 5.1080575 66.471809
29.151562 25.75321 90.475998
52.646488 98.015297 24.265955
66.138138 91.045479 18.49011
95.908707 70.888229 76.38063
102.16586 51.653976 68.244194
68.076591 69.829453 100.46362
15.679364 86.846046 34.212704
8.4640064 72.208939 30.223793
74.21199 16.758272 24.304077
78.462387 21.691986 84.269943
84.837898 75.784317 18.197838
58.671822 2.5186687 52.252949
98.647552 54.476074 77.037262
72.9291 100.70068 41.045818
3.5703905 60.330429 71.837898
23.453455 48.675022 96.581329
24.062492 12.139133 39.99437
89.848854 29.488955 79.421288
1.3358387 67.162743 50.353554
8.2303762 25.90449 55.539581
93.182655 21.960402 54.332211
34.305717 40.029366 100.1263
33.14336 46.386383 4.8832922
1.219727 48.556473 42.044159
23.833622 27.991041 88.40918
99.340393 41.892986 34.616177
70.600731 34.086956 8.5324192
43.493092 59.464806 1.7960764
10.607504 78.292702 74.184486
51.010811 14.96309 18.738134
32.513992 18.898251 20.087273
22.869028 42.159824 94.581566
18.391211 44.965199 92.084526
33.861752 13.840953 80.714607
38.673634 77.238335 98.12561
65.32196 97.118103 26.147781
101.91625 42.918758 42.076649
64.118866 100.76457 32.17157
42.398727 21.693167 92.62822
56.396935 72.271233 102.08092
64.465714 3.5779724 49.398994
34.740509 99.333168 32.536705
35.819969 6.1869488 40.843739
34.430233 97.809525 29.848083
51.437824 58.737621 0.98104107
21.511488 87.663506 79.285522
84.091614 29.912804 86.298592
75.857666 56.024662 99.589981
69.592606 7.2684255 67.593002
60.526081 85.212486 11.768994
52.27478 14.005482 86.47657
23.953512 12.818484 67.959641
36.585037 71.00074 5.9287429
95.488998 83.524834 51.928658
4.9003854 73.782249 64.365227
75.650177 10.375977 37.516117
75.671089 27.154949 15.142833
100.53329 34.748699 49.73008
9.1455574 82.03727 64.723351
41.475231 48.748142 2.0923517
54.657532 67.780594 2.4899368
97.20163 79.666367 60.561638
24.332331 44.688026 96.302567
43.123196 81.752968 9.3915653
17.862873 34.741314 87.487167
98.61631 58.836151 76.66983
20.8629 95.523888 44.965607
89.131821 86.553078 71.166885
11.011653 24.627401 40.480476
65.715462 79.125351 8.9863853
48.728027 76.15435 100.46093
67.416641 86.413841 91.489479
89.806549 89.510597 43.983097
12.724845 76.577034 79.340057
90.820717 21.654852 65.646873
4.6361809 38.236115 68.112854
88.199188 65.256599 16.879711
91.755226 21.690151 43.270798
71.833565 53.172112 101.47991
20.646383 75.54686 17.080633
22.570423 68.526894 93.819489
77.616074 85.390556 86.543098
76.873138 14.382951 75.83844
16.683901 70.840797 18.268801
17.049749 32.335506 21.096024
5.7937398 64.022942 30.902948
26.99135 75.510971 12.220691
96.058044 70.384956 76.634384
81.721992 40.388786 12.32305
88.319397 20.59724 36.475494
92.093109 21.599274 45.392338
0.22348475 58.377338 58.030483
89.258057 90.508148 60.645096
88.57019 21.271786 35.707962
91.136963 70.350235 22.110634
27.433563 55.025761 7.0300145
93.298218 59.019058 84.834145
41.973007 73.544708 5.5294309
58.372589 58.73748 1.3328228
14.427102 77.015984 24.724354
72.20826 34.115902 9.1526337
94.180885 65.747818 81.877159
21.366356 17.961882 31.35244
87.431419 45.596081 15.571486
44.953285 11.541298 82.372452
84.396935 90.388557 72.736443
67.221405 66.742836 4.5343375
101.72077 61.00024 38.034405
101.35847 41.956841 65.162437
80.714798 98.07885 56.371391
98.397743 39.703064 33.430305
43.084297 70.609467 4.155127
75.849121 41.480865 97.810112
30.852692 32.898071 95.728249
63.0495 3.9879265 62.2771
21.520639 42.724842 93.863632
63.224831 82.139297 10.219357
53.832001 28.258499 7.7024527
61.005558 22.893658 93.944839
51.148277 7.0472221 30.838917
97.882469 70.870766 33.868908
54.756836 47.813969 1.2855525
79.2686 71.488846 94.423347
71.59549 78.596031 95.103889
38.676781 33.346352 7.1046648
1.8612477 61.799404 65.775543
2.2381029 43.212364 64.03299
92.676941 81.9254 34.894623
60.791897 4.1725044 64.776299
75.675751 8.5631428 61.860081
53.959496 16.653696 16.8319
16.496536 92.021294 46.317654
61.663391 96.669441 82.275711
82.564651 36.923206 91.833359
20.988861 88.92469 29.021572
29.931194 13.355165 76.79615
61.500458 95.003204 84.664291
3.1961706 35.565662 53.221123
86.518867 78.900826 83.76107
79.857872 25.099258 19.597454
10.034546 85.267311 51.428131
85.892769 14.686278 48.918812
68.945724 61.506786 4.1041589
20.444471 44.42881 12.711113
37.601517 100.00217 74.188042
16.244905 49.682266 90.998787
84.290916 55.94796 11.913757
38.776211 98.907951 76.942284
70.446808 12.839231 78.858528
33.531647 69.21344 6.5238175
38.506916 101.26237 34.499432
7.3446965 42.399673 28.688232
90.916054 88.779411 58.834778
9.3357391 80.581779 37.991505
95.511818 79.007164 68.364586
31.602547 91.630806 22.571997
45.524845 20.223988 14.011312
72.675873 77.215179 95.312263
46.152187 101.74756 31.920212
79.312134 24.094694 20.243332
62.037785 82.858559 95.659821
26.795448 38.131111 95.758987
75.821938 10.046672 38.678329
32.489872 6.4715443 60.535824
84.463356 24.390631 81.32135
60.079136 79.897644 97.97438
21.204582 68.106277 13.029251
96.534645 64.792419 27.714584
96.89386 72.983734 72.583611
87.019936 90.103592 37.814747
23.265232 95.993568 39.932625
72.982864 17.613819 22.179012
56.353695 13.769626 85.934715
30.437847 94.301018 78.849388
17.50922 92.555611 61.639065
18.658159 94.552048 52.194099
97.847687 78.071487 62.182877
6.3025055 47.959438 77.411377
10.445431 24.245939 62.784332
24.407412 66.502785 95.74855
41.563797 70.663544 4.5835929
96.209633 78.329323 38.28717
30.600639 97.218224 73.993401
84.17466 93.531685 65.8843
98.788864 41.928669 73.209839
45.645931 72.942818 101.58102
58.771404 13.248425 84.810944
23.563679 88.939201 26.247173
42.393646 13.896991 84.875374
78.239403 99.526375 51.266987
18.439196 82.185883 81.766464
22.039309 86.996086 80.927864
3.3537881 37.348816 44.331161
73.357613 87.864815 86.994148
5.7555552 50.250607 76.987564
27.05678 86.116112 86.294861
29.987591 15.843863 25.311857
53.33091 21.141962 12.569656
81.749756 55.427052 10.087929
36.67989 4.3869095 54.226734
18.731045 86.367851 77.667763
100.18111 49.176704 33.065804
6.4501138 73.7285 36.191013
99.759468 75.468994 57.094715
79.198303 9.8757029 48.523788
23.995115 97.720657 44.809525
55.987469 73.007599 4.242908
73.101837 66.429802 99.47506
53.725021 19.306589 14.28834
47.141499 8.3632154 28.752232
90.093178 37.901543 21.163649
12.101806 87.503532 46.298603
3.2150524 35.757896 52.427452
87.601257 32.007481 21.651184
45.386669 7.2764277 31.049635
12.435523 72.869888 24.218496
56.411968 56.556728 0.89364409
49.812271 56.523701 0.80337846
68.82531 84.241219 92.625015
24.020985 98.559174 54.784233
37.052361 98.010292 77.829582
18.046679 92.717262 63.255947
36.470116 39.261383 100.70371
20.72666 12.642404 56.946259
82.038925 71.626236 92.373886
83.16658 23.756687 23.989767
55.469975 52.277527 0.92111498
42.289627 6.2492981 34.999271
71.789963 77.188644 95.743469
46.98642 2.6234553 47.51321
41.217796 3.2079601 50.179604
10.761098 74.963913 28.66169
46.430401 79.59893 98.554001
64.317474 77.651749 7.7811713
42.61198 14.420918 20.629221
11.476053 44.00732 84.281319
95.852707 65.005783 26.637209
75.050392 27.557535 14.36741
100.90755 44.193974 68.662567
99.938812 35.260082 62.0453
20.418945 20.278419 29.209761
96.079208 26.347742 48.68539
94.200745 85.075294 56.915924
57.841728 8.3139668 77.069847
46.191505 39.475822 3.3182082
9.3985491 84.125885 57.268299
39.626469 78.136276 8.1534052
57.991196 5.1613278 36.235039
64.613205 4.5826874 63.051338
89.09816 25.956615 29.228153
25.552263 98.890732 59.871418
30.357128 9.543396 37.32077
77.191086 12.306015 71.220657
71.91098 63.879662 100.44884
74.909409 48.249706 99.665451
95.565918 64.874283 26.009491
26.604458 86.585457 20.75017
19.187954 47.565891 93.121605
59.933727 7.8269653 30.613405
34.484608 54.115685 102.39698
93.492477 78.884117 73.401703
29.155863 59.21711 99.792953
49.268463 3.7291861 40.179722
28.804268 99.274124 39.888214
66.238167 20.07745 89.974541
86.89106 69.26059 17.070648
69.825935 77.973106 96.290802
25.605133 40.136974 10.164396
81.721283 88.571419 79.297394
90.7164 22.80102 69.080505
40.090805 90.099777 16.68581
32.371132 98.608147 72.927979
54.636135 57.37085 0.87902009
42.337566 83.212158 10.4853
95.030937 75.340065 74.485939
15.102741 83.291031 30.002544
32.905113 77.843872 95.579918
25.521687 40.866909 10.12082
77.339203 42.258728 97.260239
67.110786 90.44252 18.308224
73.152954 25.711426 14.683969
41.557869 36.91629 4.7732444
31.88641 102.29505 57.824245
1.0635235 57.681835 64.056961
70.232323 93.738823 82.300865
86.467613 14.929632 53.918514
81.840141 57.257946 95.904747
30.760017 102.09318 49.67086
22.012112 72.000031 92.033867
37.976925 67.891357 4.5337534
32.356434 6.0367899 56.315975
4.4994111 76.229034 53.262531
61.811165 101.763 73.129875
82.412186 19.379272 28.88645
69.815086 78.239761 96.043327
43.068577 37.581566 4.2518129
12.014791 76.986099 77.764603
4.6393023 75.72065 47.562801
37.385998 87.499908 90.864861
77.986336 95.136948 32.910656
90.605339 19.612362 60.263145
50.924797 97.863419 82.078033
92.743065 55.139809 20.003143
95.156342 26.544027 63.527103
49.303944 12.098956 83.623734
4.8219147 48.629692 31.204897
17.168575 17.188204 64.347816
20.24468 42.851192 13.192667
80.011269 97.69696 61.288975
72.206558 65.900497 100.03107
33.751831 87.94902 17.458773
45.434902 2.7282786 57.858002
100.9542 66.021088 38.633369
56.914185 2.3239162 55.224213
30.710291 101.99451 57.431419
21.965912 40.715626 12.432161
82.384804 91.688873 73.799576
39.277664 49.325954 2.5888643
9.5789986 32.915138 31.347694
87.834488 87.683823 34.197651
77.415779 81.38784 90.10186
77.733513 80.934914 15.947966
68.166313 43.661762 4.4960084
0.80982137 53.62009 63.049252
13.002908 51.468456 87.71003
86.427376 25.148006 79.445755
99.474121 67.64299 70.581017
29.090336 8.9323454 40.803501
26.775383 9.8750868 64.306686
90.816002 69.627762 21.471729
54.152752 91.304993 15.987326
20.689211 96.052078 54.647755
14.014971 74.409081 23.273006
102.16752 68.604591 57.344273
2.0785403 44.217846 64.763275
60.436447 101.26729 74.667229
10.926564 84.520935 64.500237
69.79467 69.525551 99.91198
18.196966 89.257202 34.064812
71.662468 94.742371 26.05307
3.7764533 73.330956 58.893333
89.069107 65.200882 88.489929
46.561359 43.697842 2.135088
64.153236 49.969379 2.387311
102.00151 39.232693 57.149231
64.026115 12.459073 81.877304
79.809967 98.626785 57.265858
23.759424 84.417336 85.227898
51.599792 28.478865 98.485847
69.673027 54.385948 102.2318
11.276023 49.86705 20.557081
24.552439 15.496523 74.534874
101.3415 62.022095 68.842827
81.567986 72.371704 92.368378
99.440887 32.88641 47.384079
42.572514 8.582839 76.729385
0.25580898 61.218876 53.412563
99.92765 61.449493 72.755127
64.55246 27.791336 96.454575
10.052654 80.58107 69.533272
22.429375 55.570698 96.052193
77.438766 96.996407 36.257504
46.478592 25.052076 95.977524
12.853873 27.541847 31.169809
74.882317 87.698059 19.907085
83.973282 63.806553 93.330223
1.2345713 62.955505 44.866131
18.350517 93.529434 45.286484
12.240828 87.96759 49.024742
7.9176669 62.638714 79.875595
72.951721 26.886137 13.820288
54.869667 69.078011 3.0349061
11.883869 71.56279 81.847107
6.2844176 45.72802 29.19544
49.402237 15.068501 87.619652
86.207954 20.660557 32.093586
76.917198 92.135017 26.648487
14.377523 79.221153 26.673298
45.267948 53.643917 1.1981156
21.081259 73.49762 15.413405
33.143581 69.138481 6.6649027
11.192073 75.432625 78.095299
86.723938 81.759178 81.239288
42.585617 5.8412905 70.464325
21.889896 17.135712 32.217339
71.991348 9.3273592 35.579514
28.169291 7.9290648 56.215546
98.510757 37.680374 35.789909
17.586914 24.540428 27.207153
69.770508 53.81657 102.38378
98.017662 56.06797 27.982027
78.60144 94.833221 33.285408
85.860405 94.213051 55.610989
86.218483 81.20414 82.193413
73.771187 16.828505 23.821613
95.57032 58.475739 24.281679
66.448799 75.137863 7.2901859
96.240318 48.230747 80.314583
74.475739 31.278536 11.892525
77.18969 90.594788 81.262108
38.95145 51.767666 2.4927421
7.9100862 80.56028 63.413479
32.254955 91.077225 84.758652
82.035049 54.616379 10.210725
84.91758 42.500492 13.973693
42.566635 14.531709 85.596802
53.682869 14.192472 86.424561
10.742877 26.194309 68.04129
41.200096 90.726685 88.977501
42.204651 96.128944 82.84874
29.03203 60.661335 6.4714036
59.985954 23.418243 94.529457
48.225445 49.376152 1.0567348
45.674511 94.55014 20.21172
16.073774 58.518192 15.29118
18.165771 93.645058 46.609459
70.925591 76.376976 9.5427942
76.03183 12.395259 73.02729
27.265978 97.585037 37.496834
74.83371 60.868103 6.4885817
69.82309 41.153088 100.40777
21.435898 44.394821 94.353996
26.553062 93.97953 75.692513
34.170792 60.215759 101.79496
57.337013 84.348877 95.627075
98.593208 47.028664 76.066383
76.958572 40.398136 96.920952
69.57579 20.570887 89.029793
13.814987 89.890907 54.894341
51.149597 41.521431 2.2701945
95.379303 60.633938 24.326105
64.646744 19.784698 15.922901
67.367294 11.089708 27.985565
92.556763 54.095512 86.209785
100.61697 68.090027 39.065449
95.808243 35.114204 74.255829
79.585548 93.913338 32.650208
22.028658 36.214478 91.825584
15.513244 89.955811 41.328037
96.774467 65.615791 28.303543
49.968441 96.899757 22.621712
75.887756 16.30838 79.816772
31.108692 55.653027 100.90856
82.732574 13.923904 66.054955
90.077835 25.803574 74.838066
102.311 50.989487 38.806221
3.1610699 64.960365 68.225937
96.222771 82.337517 55.556057
96.348106 38.441296 75.9963
35.151661 43.019901 4.8534942
7.2284589 29.095577 43.264996
57.634617 36.371269 101.95165
61.257 13.933817 85.13504
50.757816 3.2842829 41.754726
32.431648 97.486145 31.033308
57.58606 92.841049 88.188004
75.326866 84.459099 88.894058
85.050858 88.804657 74.562767
16.797775 53.553089 91.600204
10.704912 83.15522 39.127335
95.064392 79.877205 68.445015
15.850203 64.752266 16.797243
53.093742 98.599754 25.139778
0.80723131 44.485611 53.962837
37.801495 58.230286 2.9300759
1.2624547 65.693993 57.090546
65.848442 28.323761 96.189774
51.884872 5.6786842 72.381012
90.053337 31.313549 80.592674
69.280182 16.60305 21.031078
36.671688 44.061398 102.05943
9.8562241 84.860199 49.442608
23.128693 81.102791 87.504654
69.148605 56.350735 3.6485169
23.587717 84.741013 21.299755
88.875443 55.867592 15.787595
87.273148 79.381592 23.373789
35.846836 9.4431067 74.422859
13.747868 49.973949 88.479393
33.085941 85.024841 90.936836
24.420582 19.226475 26.081553
72.990501 71.713821 8.4321995
26.856375 12.160633 70.691597
35.37698 95.822952 80.105064
67.604126 95.147987 24.06949
34.623657 79.062065 10.455928
0.40149871 62.182606 50.00116
40.777103 73.911324 100.2863
88.948677 43.683353 88.49456
58.559875 98.931801 79.633499
94.950241 35.953983 29.485636
80.95166 19.19207 27.313271
20.294565 47.121292 12.108016
44.779568 28.524439 98.036728
94.763748 78.789871 71.016479
4.7614036 72.440247 66.168388
4.0089245 35.764359 44.197926
97.258392 71.767555 33.234886
42.866997 43.252972 2.8726864
68.018372 16.724318 85.877289
84.011192 34.670219 89.576843
45.271751 7.8495002 30.266493
47.591778 4.62885 68.590202
29.087481 78.164139 12.634593
83.875618 94.690948 43.103298
58.180931 94.392235 86.026802
16.116863 56.180855 90.986832
93.58638 85.104088 61.852383
81.651245 90.047112 77.518005
77.347275 21.471861 21.072794
80.670273 13.451883 37.410755
42.765034 71.964294 101.40078
2.5391324 57.46233 36.403538
58.076141 89.161362 14.470797
33.254993 74.104317 97.802338
13.134495 26.934006 31.485575
35.88028 49.91608 3.5536864
20.166672 74.757629 89.23671
37.534954 9.1453886 30.947798
46.833858 75.542053 100.51801
39.951614 72.959496 5.7657361
55.039845 3.8562438 39.667706
64.159088 76.72023 98.846344
92.860641 36.111206 25.931532
19.392019 52.650959 12.261274
82.053215 32.241211 16.451937
11.556363 85.775711 42.802284
99.306343 67.356865 71.316391
41.142094 93.221275 86.447334
31.95668 101.71583 61.993511
99.915283 75.239586 49.736649
16.613264 48.649269 91.002129
62.684002 92.417755 87.257004
41.304771 98.797325 27.538857
74.389069 85.53566 17.463024
10.672641 32.412071 29.839052
95.111443 82.209343 42.300629
31.610781 99.349144 69.931221
67.773849 15.615234 84.488922
40.656597 3.4125826 50.565578
74.13134 97.389687 72.832253
17.087502 78.656609 22.693266
28.432945 45.007389 7.3204551
26.634655 67.873482 9.4656153
63.700722 22.93679 12.912709
89.123985 88.879814 66.409035
98.119164 33.317081 65.917381
34.824726 23.520214 14.603452
94.926048 81.907188 41.246159
4.5295172 32.480488 52.579651
77.555199 22.195894 20.573517
25.406544 94.397499 73.441292
18.009396 79.160324 83.934158
47.108597 71.74395 4.0412698
51.835709 5.3019309 34.780544
71.415771 41.088261 99.773346
47.959545 77.053436 100.05184
36.457699 17.268473 86.627991
76.615356 82.461266 89.8246
34.163055 11.749327 77.537865
58.987103 19.305008 14.737679
38.486507 54.720066 2.5359349
28.033247 90.540817 82.185081
89.689774 88.842102 41.510017
53.606934 102.01831 74.327995
56.339897 14.142748 86.303146
13.614926 33.448467 81.781166
27.261108 48.611118 98.78083
72.037956 57.802666 101.39497
72.265892 78.236771 11.184959
51.74276 23.869844 10.534808
25.03607 98.249725 62.041874
17.844398 93.575676 49.053692
71.413239 100.40794 37.698547
61.355213 4.8452778 38.748993
5.3697491 76.936752 46.7071
74.330338 86.355507 88.08886
66.52549 10.605569 28.411953
64.77272 3.6964998 50.126564
84.081963 15.836935 68.396301
32.249126 47.91119 101.01114
49.61668 50.275822 0.86766964
101.0204 68.177185 64.904182
70.399811 98.610756 73.884148
6.4598212 74.543236 69.092178
70.5243 99.214554 33.317131
69.131134 5.9066243 42.749432
34.425571 61.811985 4.4446611
84.833481 13.672561 53.402348
66.921234 65.907829 101.77286
40.052471 8.1326561 31.56744
12.887265 86.747108 65.253418
24.520155 10.560188 45.524292
6.9269743 77.984383 65.014549
49.591232 49.167316 1.1465634
50.297016 9.1434546 26.631128
20.541754 88.679214 29.18873
99.923729 74.554985 46.432842
27.560297 40.258759 96.965538
7.7106757 64.754074 78.575836
18.327108 46.087936 13.828871
32.612667 102.31969 46.188793
67.832283 94.199493 82.944008
86.406738 66.66967 15.59129
74.651169 82.869743 15.357722
90.528404 36.055954 83.534012
41.134869 94.176498 21.040337
57.52285 51.293343 1.0546074
89.981682 89.937187 58.604435
72.677528 91.034096 21.795996
69.29393 88.315216 17.040642
87.524719 70.905396 18.290867
7.4752111 53.751774 25.765018
65.897835 8.3757191 32.19442
30.932478 94.180351 79.382408
42.930332 71.509605 101.72047
91.907997 45.22551 85.872421
87.210281 37.765308 87.967674
53.184071 41.339909 2.4384375
85.39296 16.541862 39.138035
21.141031 30.840551 17.94244
79.590103 75.219406 13.843422
16.364513 17.24748 62.116459
66.035217 84.925522 13.018293
42.395626 6.0896382 70.481682
99.695267 34.90395 62.444641
67.573212 4.7842045 58.846375
36.909595 35.709 99.611923
8.9925499 47.782921 81.879463
13.601883 88.915924 44.771923
81.414879 47.156239 10.249313
94.281769 71.183434 27.296997
90.774773 21.098251 64.597794
34.075531 100.5147 36.375149
62.232525 58.349312 1.8357009
14.063137 88.165367 40.718204
34.429081 21.104176 89.373642
35.644749 35.855793 7.0132995
75.870728 8.1222868 58.299595
69.85701 100.8024 69.591995
20.767431 83.456673 22.87405
13.771038 24.253408 72.31675
1.9307873 44.716511 64.696846
21.725317 31.873381 89.147957
80.371017 62.824337 96.235893
79.006935 98.794327 58.371788
46.139862 89.309357 91.525146
93.256256 82.508293 69.064102
64.363556 18.849995 16.56983
65.810577 101.88232 70.304993
91.182045 32.617893 80.196106
70.671425 19.129128 19.044729
3.0830712 55.926582 71.302139
20.007097 84.094048 24.299437
67.058228 76.421982 7.9412975
81.406784 12.23532 63.165867
12.122456 62.286804 85.963043
67.982986 81.25795 11.124825
59.899166 66.640511 2.7590861
69.867172 61.4086 101.83418
98.849335 30.95957 51.856525
63.507439 30.427292 98.119614
70.574745 5.4383297 56.353737
32.093651 88.189247 87.481392
41.790455 12.032735 82.134209
2.5766752 51.707092 69.941719
43.931633 91.5298 88.91378
41.823959 78.584564 98.186256
6.5719461 30.162313 62.076542
99.109673 71.986275 38.261101
18.008383 15.078724 47.50613
12.131882 83.525009 69.754562
94.609154 74.163948 30.108681
47.985931 6.3325133 73.472824
99.958427 74.571426 59.358776
93.260735 84.399612 41.573635
73.308533 54.379505 100.86726
71.076813 102.25131 43.80938
34.590401 37.486897 6.6386981
33.478413 69.606804 6.5480094
68.315628 5.0683241 46.990559
89.537125 18.325994 47.886272
55.311485 62.280254 1.4330339
74.965576 52.135452 6.0141611
31.275692 66.182541 6.607204
20.989906 70.698708 91.748398
89.628716 18.014551 53.191364
94.545944 48.225605 23.130127
41.54911 22.327946 92.992867
57.407112 100.81712 29.791668
47.168114 22.026236 93.999992
34.493462 21.237022 89.390274
7.6376815 55.502842 80.784088
37.144749 73.426109 6.709609
22.103634 25.47485 21.340782
84.032272 32.112785 18.242874
81.194504 27.335453 87.140808
51.192566 42.509312 2.1099072
11.435962 52.910828 85.99601
9.2346697 83.394852 45.719437
51.850994 68.291687 2.6198742
89.192657 21.195286 36.937214
20.80558 13.34888 44.411476
96.013016 26.425028 57.286102
84.312103 42.537491 92.468956
91.81723 39.663757 83.675835
26.293816 95.705002 72.120308
4.6128531 76.098854 55.088436
3.5022771 57.318195 33.805138
24.109989 63.708366 9.7989025
5.868885 47.524372 76.563545
60.223633 14.435548 85.969658
2.1713653 38.980251 52.849037
92.569435 26.94548 34.307106
11.754498 87.248581 58.325993
101.3039 37.898167 46.969238
33.977535 7.1752272 66.951744
7.4479594 27.969397 45.951778
64.66404 55.025566 2.3095918
99.390778 73.208694 65.174019
31.363533 89.541138 20.325649
32.310337 99.688782 36.111671
98.715836 56.661919 76.437447
52.080624 60.987701 1.1565909
7.1383562 55.206348 26.278635
13.34304 25.656086 73.467049
84.899986 85.936432 27.334894
12.660082 84.654182 69.353836
69.100296 95.454834 80.437439
87.91375 92.537148 52.055485
50.456184 73.418365 4.439034
91.855438 77.165688 78.417603
26.325857 66.893623 9.3164053
86.581184 73.11393 87.662682
96.774727 57.764538 26.130177
84.751625 17.584171 35.356007
30.376156 40.779346 7.5473151
79.35054 10.426646 45.182499
37.117905 44.207901 102.19517
72.405464 8.7293396 37.684982
67.286766 30.166582 9.2591963
36.936977 4.395175 48.44709
46.671986 7.114243 74.664909
84.563095 56.933556 12.149158
91.441322 20.495726 47.15826
24.505733 13.47495 35.829887
5.0324802 46.577663 74.79023
2.6381135 57.233433 69.668419
98.676682 37.727398 35.738323
10.002959 43.953178 82.413651
6.9808607 38.773163 31.753263
8.1957083 40.592922 78.178604
91.127495 58.364799 87.624847
15.794695 51.471676 15.371542
60.737991 57.271694 1.5100013
46.903786 81.984161 8.8914309
92.898903 86.901573 54.317207
68.59304 101.75014 38.157986
79.931709 36.775784 12.445533
27.574192 86.146805 19.41309
89.811211 28.011187 28.186371
88.425209 18.204149 63.177616
28.583847 45.459061 7.1820884
98.914276 31.227604 49.593632
67.73584 30.751957 96.959061
2.7643783 71.53933 55.772911
75.758781 87.484558 85.751114
13.520407 50.202076 88.204521
51.381866 100.84018 28.911827
98.79567 43.057713 73.549118
15.339748 80.832703 79.353287
99.828186 73.370491 62.953468
10.372509 71.819664 79.336548
66.772598 4.2416673 54.369297
40.265072 8.4201384 30.857689
90.974312 89.436447 54.376198
0.89413035 59.522636 43.758556
88.287445 90.649582 42.52599
55.881424 89.061417 14.145009
43.943867 5.4699049 36.115089
75.511299 99.54332 65.122017
3.6822085 38.240211 41.848057
97.015129 28.349295 59.849148
22.391335 21.403259 80.749542
88.891006 51.871574 16.084133
8.4284525 30.819696 36.324825
9.5082092 26.963331 40.17915
67.334702 65.149757 4.1583982
77.302727 99.107285 63.199364
39.292439 85.186623 12.764575
61.188919 12.08468 82.362778
89.804443 33.255268 82.486244
86.873886 15.888498 60.594887
71.953873 89.978378 85.850555
14.496786 81.699219 28.90888
95.763817 26.594723 45.315678
78.361038 19.789719 23.695824
1.2026119 66.332191 55.076176
19.445543 89.671951 32.538345
25.820538 84.552101 19.500708
2.0345769 68.767738 47.515621
20.695307 85.07457 24.792812
68.702377 88.561821 17.038918
60.294128 3.5137713 43.539982
101.15103 69.760124 43.984333
27.457548 83.055618 17.049103
85.941498 41.644238 15.318057
101.58517 47.728313 37.637604
86.700607 39.831238 89.430946
35.431221 74.110802 7.6575155
49.061806 99.423325 26.480839
16.338787 71.265717 18.952801
80.80246 11.051872 59.29945
89.552811 81.646721 77.431175
18.257557 84.23587 26.53581
17.329075 93.080765 57.54023
4.3867617 47.031651 32.870441
95.246574 42.118858 79.955719
68.721069 4.736217 51.868496
93.663643 50.000229 84.45681
17.052643 37.861526 88.298988
92.373741 54.45192 86.359474
43.678345 6.4170408 33.775505
72.272774 7.6559458 65.574211
86.673599 20.217716 33.652447
65.228584 10.214993 77.991432
38.994747 101.50295 34.648136
88.04393 88.331612 35.838314
98.561111 30.53215 51.23568
80.41832 73.607338 92.660339
34.176399 14.093473 81.176979
84.644524 70.671082 15.425121
97.469864 46.509907 28.445686
53.330482 91.30867 90.055382
81.090584 67.571297 94.553024
98.46003 30.221556 55.399471
46.13768 89.495026 91.451698
63.574322 69.543823 4.411891
62.325954 7.0687237 73.15921
23.950916 10.594531 46.914101
10.995376 69.660057 24.443666
21.233778 95.771919 44.786446
7.6668015 81.80542 56.69091
77.653656 80.83091 90.121178
13.046585 88.00518 61.989815
78.667526 56.55611 98.165245
97.724976 45.853283 77.263405
62.668648 19.889114 15.017422
19.363317 95.036339 56.75428
72.008545 101.40217 64.022453
61.228302 9.8038139 78.858383
37.290733 20.303486 16.213881
54.679733 32.787209 100.67316
62.129501 81.79129 96.549553
15.56835 21.044949 35.623131
101.97552 57.70787 68.22049
37.407429 31.610907 8.1831207
13.96578 64.38475 87.415131
76.259094 75.848129 11.90058
31.065826 51.004509 100.92156
8.8490744 60.802536 81.937958
77.297653 56.9245 98.81176
101.81622 66.428749 64.070702
37.219406 29.317345 96.431168
58.313217 102.37617 72.93927
27.359474 28.245518 14.991091
9.8671179 30.393282 33.643726
100.70885 72.714638 59.535728
25.334919 97.406906 65.888725
69.156052 7.9579506 35.727154
98.339607 31.12426 45.183254
20.008165 92.764511 68.564339
3.9800758 50.728195 32.878311
33.318981 42.857155 5.6263571
13.797952 44.968311 18.706789
71.150597 37.049355 7.454752
20.507284 39.782818 92.080101
24.72076 51.307991 97.510765
54.244453 82.062759 8.75704
99.596298 72.193039 65.595604
55.297356 4.6047378 37.308826
43.148365 80.293655 97.508263
92.148445 20.712971 55.964355
41.602573 11.250929 80.872711
17.831425 92.876389 44.365608
24.197399 14.095345 71.215378
14.50337 67.12339 19.128716
79.036057 66.796585 9.8599234
34.690655 72.196274 99.062424
98.206825 44.200844 75.751434
88.702011 81.829987 78.183128
44.304077 17.832798 16.489143
82.70668 72.774925 14.967255
16.891485 31.287386 84.069595
57.512085 6.4913077 32.840603
27.17663 8.7803202 59.489716
54.63549 98.830795 25.470421
12.677124 49.343121 87.11882
69.462135 16.898436 20.78887
93.460266 69.340431 24.760439
60.383152 28.713375 97.973221
50.57476 29.359526 7.2255621
61.068443 90.166832 90.222984
60.194267 56.368248 1.396976
27.706547 37.252907 10.074005
43.071712 90.401321 89.909859
70.911163 51.470852 4.3801599
74.695503 11.839046 73.245544
24.857738 75.822083 13.818103
92.84436 27.675236 34.121048
22.603142 55.782829 96.305191
49.401554 28.558147 7.6264415
18.707966 40.212173 90.790398
79.047508 95.897583 69.625023
77.294861 95.593559 73.200256
0 0 0 1 0 0 0 1 0 0 0 1 0 0 0 0 0 1502 1 0 0
