ply
format ascii 1.0
comment PCL generated
element vertex 21
property float x
property float y
property float z
element face 0
element camera 1
property float view_px
property float view_py
property float view_pz
property float x_axisx
property float x_axisy
property float x_axisz
property float y_axisx
property float y_axisy
property float y_axisz
property float z_axisx
property float z_axisy
property float z_axisz
property float focal
property float scalex
property float scaley
property float centerx
property float centery
property int viewportx
property int viewporty
property float k1
property float k2
end_header
10 35.833332 178.5
-6.25 43.25 177.16667
7.6666665 43.200001 175.33333
11.5 47.166668 176.16667
5.8095236 55.238094 175.61905
11.928572 53.142857 175.42857
-2.5 61.5 177
6.1999998 62 176.8
-1 27.833334 185.83333
5.0689654 27.620689 185
13.294118 28.352942 187.11765
-14.307693 36.46154 185.92308
14.888889 33.155556 183.60001
-18.4 43 187.39999
24.226667 44.653332 183.94667
-18.714285 55 184.42857
24.684931 53.054794 182.9178
17.75 62.25 180
3.75 23.333334 196.26666
-18.692308 34.923077 191.92308
-23 51 193
0 0 0 1 0 0 0 1 0 0 0 1 0 0 0 0 0 21 1 0 0
