ply
format ascii 1.0
comment PCL generated
element vertex 30
property float x
property float y
property float z
element face 0
element camera 1
property float view_px
property float view_py
property float view_pz
property float x_axisx
property float x_axisy
property float x_axisz
property float y_axisx
property float y_axisy
property float y_axisz
property float z_axisx
property float z_axisy
property float z_axisz
property float focal
property float scalex
property float scaley
property float centerx
property float centery
property int viewportx
property int viewporty
property float k1
property float k2
end_header
-6.4059296 -27.940899 -78.903519
7.0377865 -27.789581 -78.903519
13.664333 -25.485016 -78.903519
21.48296 -19.607563 -78.903519
26.789627 -11.580897 -78.903519
-12.505547 -28.940899 -76.972481
-3.0032387 -28.940899 -77.368484
4.0219688 -28.940899 -77.839691
-24.957458 -23.852383 -75.85833
21.728058 -19.499722 -77.697639
-35.061455 -14.244058 -74.424393
24.49115 -15.066205 -77.517769
-40.767159 -3.0525627 -73.279762
29.716791 -6.5826883 -76.873665
32.25119 -2.4018364 -77.106644
-41.724777 6.594389 -71.640358
-42.299179 16.574322 -70.540489
-42.810371 22.059101 -68.903519
-35.122482 28.317604 -68.910324
-33.460129 32.059101 -68.903519
-52.329094 25.229315 -59.807777
-35.912781 35.241978 -65.829498
-55.733704 26.888268 -54.949348
-41.877396 48.234776 -54.736855
-38.178658 49.372231 -56.398468
-62.99852 29.785027 -45.081299
-64.731728 35.453171 -40.721306
-50.350372 50.559101 -43.903519
-46.100372 49.809101 -47.653519
-66.704994 34.768353 -35.181046
0 0 0 1 0 0 0 1 0 0 0 1 0 0 0 0 0 30 1 0 0
