ply
format ascii 1.0
comment PCL generated
element vertex 25
property float x
property float y
property float z
element face 0
element camera 1
property float view_px
property float view_py
property float view_pz
property float x_axisx
property float x_axisy
property float x_axisz
property float y_axisx
property float y_axisy
property float y_axisz
property float z_axisx
property float z_axisy
property float z_axisz
property float focal
property float scalex
property float scaley
property float centerx
property float centery
property int viewportx
property int viewporty
property float k1
property float k2
end_header
-12 17.333334 147
13.666667 25.592592 146.55556
14.3 31.4 143.7
20 31.666666 146.33333
-7.5 9 159
-23.727272 16.318182 154.09091
-15.095238 13.142858 155.33333
15.765766 15.405405 157.61261
-37.615383 23.923077 156.23077
24.194313 24.20853 155.64929
-44.62162 35.027027 153.81081
25 30.333334 151.5
-24.65 8.1999998 166.95
-14.5 7.125 166.625
-4.590909 7.090909 165.63637
-41.25 18.25 168.5
-34.142857 13.551021 167.2449
12.444445 12.555555 160.38889
20.444445 18.444445 160
-44.200001 22 168.8
23 20.5 160
-21.428572 7.4285712 170.14285
-17.954546 6.7272725 170.72728
-41 18.857143 170.57143
-38 16.357143 170.28572
0 0 0 1 0 0 0 1 0 0 0 1 0 0 0 0 0 25 1 0 0
