ply
format ascii 1.0
comment PCL generated
element vertex 35
property float x
property float y
property float z
element face 0
element camera 1
property float view_px
property float view_py
property float view_pz
property float x_axisx
property float x_axisy
property float x_axisz
property float y_axisx
property float y_axisy
property float y_axisz
property float z_axisx
property float z_axisy
property float z_axisz
property float focal
property float scalex
property float scaley
property float centerx
property float centery
property int viewportx
property int viewporty
property float k1
property float k2
end_header
-13.460632 -22.606674 -41.111801
3.6306915 -21.296131 -41.969986
-24.295952 -13.930439 -40.133804
-16.066017 -13.72753 -42.507202
15.093895 -14.900955 -43.730042
-21.512169 -3.4062405 -43.121872
-7.0121689 1.8263168 -48.21489
-21.092812 7.5521231 -42.263275
-6.7621689 9.5763168 -46.58989
-17.480919 16.920067 -41.33989
-7.7621689 16.076317 -45.46489
9.821167 21.159649 -41.881561
-11.686592 -29.545776 -36.563721
-3.7101898 -32.475662 -34.57132
15.03685 -32.369762 -32.185471
-20.750267 -20.88797 -38.21489
25.618263 -22.999771 -34.388809
-30.23439 -9.0625725 -36.937119
33.526291 -14.82753 -32.253357
-29.845512 -5.8403492 -37.548218
-28.512169 -7.1736832 -38.21489
34.987831 -2.8165407 -32.21489
11.737831 34.576317 -31.46489
26.445816 -31.879566 -24.248505
32.033287 -28.764591 -22.669434
36.006351 -24.667511 -20.869217
41.487831 -13.673683 -20.21489
42.594975 -2.6022549 -22.179169
42.972679 7.1293473 -22.033066
34.202118 23.969173 -24.357742
40.08783 -20.173683 -18.114883
41.487831 -18.423683 -17.96489
41.821163 -14.173683 -18.21489
44.237831 -3.1736832 -17.21489
44.821163 7.4929833 -16.71489
0 0 0 1 0 0 0 1 0 0 0 1 0 0 0 0 0 35 1 0 0
