ply
format ascii 1.0
comment PCL generated
element vertex 69
property float x
property float y
property float z
element face 0
element camera 1
property float view_px
property float view_py
property float view_pz
property float x_axisx
property float x_axisy
property float x_axisz
property float y_axisx
property float y_axisy
property float y_axisz
property float z_axisx
property float z_axisy
property float z_axisz
property float focal
property float scalex
property float scaley
property float centerx
property float centery
property int viewportx
property int viewporty
property float k1
property float k2
end_header
76.051743 -77.984306 52.400055
95.026527 -46.961197 58.046066
95.784042 -39.531231 60.174286
40.551739 -88.296806 70.650055
63.551739 -68.067642 77.025055
83.051743 22.174782 84.525055
71.328659 31.681076 91.740433
75.549881 29.986885 88.62915
67.267471 21.161636 97.286484
73.218407 20.765694 94.247284
58.850327 30.799263 101.45438
49.604118 43.199028 101.88696
29.051739 54.265694 102.52505
26.051739 56.265694 102.52505
-12.570057 -49.631741 110.17889
-9.6918526 -40.836872 112.31993
32.051739 25.265694 112.52505
38.311813 21.137489 111.29062
47.495327 20.947746 107.95326
54.770695 21.010788 104.49237
-42.853634 30.47541 109.5762
-32.682301 31.957184 111.30165
-26.766445 34.629333 111.43414
29.138159 31.957054 111.87073
37.612041 30.657654 109.9547
47.618977 30.857384 106.78667
-39.996876 39.34903 106.83755
-31.742748 40.89727 108.19423
-24.455204 41.154579 109.65005
17.920086 41.453369 111.32617
27.648678 40.997833 110.05821
37.551739 40.588509 107.94981
-39.614925 46.265694 104.19173
-30.868412 49.664932 105.24368
7.4577866 50.894203 108.63521
17.344582 50.801483 108.28862
27.562243 50.698463 106.75826
-21.075535 56.556602 105.52505
-11.65234 56.65345 105.29036
-0.76076126 56.703194 105.29588
7.6929588 57.212257 106.28078
17.888474 56.911957 105.70872
-3.8815956 -36.400974 113.85838
-2.4690285 -19.216734 119.04901
7.2993584 -19.293037 119.42981
-12.219349 -9.2162323 119.9106
-2.2182922 -9.3188744 119.73871
-12.312695 0.77298355 119.66499
-2.4332924 0.78665161 119.69872
4.4400864 1.498703 120.63185
38.051739 0.46569443 114.32506
-22.686634 10.631973 118.05122
6.0041199 11.58604 119.53804
29.947573 13.890694 116.92088
36.484642 11.144482 114.69389
-21.761929 20.352654 116.88841
7.5517387 20.729233 117.52245
17.458942 20.991455 117.70789
27.563644 20.950218 116.25423
35.085072 19.076805 114.12506
-30.174679 31.001541 113.63826
-19.864925 30.28653 116.02505
-12.535862 30.581055 115.12613
17.356552 30.549118 115.06784
26.435072 30.028191 114.43756
-12.114925 38.124023 114.24171
-1.6097984 37.081078 113.83275
7.4017372 36.903191 113.61255
16.066444 37.339226 113.77505
0 0 0 1 0 0 0 1 0 0 0 1 0 0 0 0 0 69 1 0 0
