ply
format ascii 1.0
comment PCL generated
element vertex 34
property float x
property float y
property float z
element face 0
element camera 1
property float view_px
property float view_py
property float view_pz
property float x_axisx
property float x_axisy
property float x_axisz
property float y_axisx
property float y_axisy
property float y_axisz
property float z_axisx
property float z_axisy
property float z_axisz
property float focal
property float scalex
property float scaley
property float centerx
property float centery
property int viewportx
property int viewporty
property float k1
property float k2
end_header
-1.3014069 -59.033463 -148.69069
-10.282837 -50.911682 -150.73105
-2.6280746 -54.119919 -149.85768
-32.371662 -29.287825 -152.56096
-18.794743 -35.4468 -154.4507
14.599201 -40.161949 -153.55978
27.983038 -30.091244 -153.6507
-41.510967 -17.147285 -152.44078
-18.128071 -24.313465 -156.48404
38.094147 -17.424576 -153.20625
-35.315952 -2.2589188 -155.95615
43.786381 -0.79134178 -152.99583
-29.002193 9.5747528 -156.90146
-22.81435 17.80418 -157.29776
-16.15855 22.417965 -156.72498
27.965677 20.967785 -155.98404
0.45301819 -76.363586 -139.6507
-59.050404 -46.994095 -140.48839
-70.261414 -33.913464 -138.85069
-59.461407 6.6865349 -147.6507
6.2052612 -104.38013 -119.6507
-68.461411 -57.313465 -132.6507
7.1100235 -108.94838 -115.68245
29.733648 -111.81209 -111.21388
87.098907 -79.379608 -108.19934
69.649704 -111.79495 -90.909958
58.991653 -119.37061 -86.936417
-89.55957 -107.10487 -78.788727
75.429947 -110.2159 -85.930069
-86.513138 -118.60657 -62.185181
-100.10847 -104.66641 -68.003632
-100.46141 -99.313461 -72.650696
-89.643234 -118.99529 -56.696152
-99.061417 -110.31346 -56.450699
0 0 0 1 0 0 0 1 0 0 0 1 0 0 0 0 0 34 1 0 0
