ply
format ascii 1.0
comment PCL generated
element vertex 28
property float x
property float y
property float z
element face 0
element camera 1
property float view_px
property float view_py
property float view_pz
property float x_axisx
property float x_axisy
property float x_axisz
property float y_axisx
property float y_axisy
property float y_axisz
property float z_axisx
property float z_axisy
property float z_axisz
property float focal
property float scalex
property float scaley
property float centerx
property float centery
property int viewportx
property int viewporty
property float k1
property float k2
end_header
22.083334 -1.8333334 146.58333
31.222221 8.8888893 145.33333
22.366667 18.633333 142.5
28.90909 43.81818 145.90909
27.897436 45.897434 147.58974
8.04 -18.639999 160.75999
22.451612 -20.67742 161.51613
-7 -4.8333335 158
-19 6.6666665 163.33333
-7.5615144 52.50631 162.08517
35.49258 52.937687 153.46736
45 45.222221 150.77777
9.3601284 62.739552 161.39549
22.107552 62.455376 159.61555
23.726776 -27.327869 169.12569
60.736843 -16.894737 178.1579
-16.6 -6.4000001 169.60001
-27.236111 11.388889 173.16667
-27.6875 23.125 171.67262
12.5 67 165
15 68 165
38.342106 -35.052631 188.8421
60.319149 -20.234043 181.25533
22.5 -37.5 206
-18 -19.518518 204.66667
51 -30 195
-31 -2 199
-25.299999 -11.8 199.39999
0 0 0 1 0 0 0 1 0 0 0 1 0 0 0 0 0 28 1 0 0
