ply
format ascii 1.0
comment PCL generated
element vertex 24
property float x
property float y
property float z
element face 0
element camera 1
property float view_px
property float view_py
property float view_pz
property float x_axisx
property float x_axisy
property float x_axisz
property float y_axisx
property float y_axisy
property float y_axisz
property float z_axisx
property float z_axisy
property float z_axisz
property float focal
property float scalex
property float scaley
property float centerx
property float centery
property int viewportx
property int viewporty
property float k1
property float k2
end_header
-13 -22.416666 108.5
-4.7236843 -26.394737 107.71053
4.3694267 -28.369427 105.15286
15.20822 -27.956165 105.91781
-23.875 -11.875 109
-17 -18.555555 108.33334
-27.727272 -5.5454545 108.90909
-31.685715 4.5428572 108.2
-30 0.375 108.625
-13.144144 -22.126125 113.07207
-6.098485 -25.765152 111.7197
27.166666 -25.766083 110.96199
33.527172 -23.621376 111.77355
-22.516666 -12.95 114.17778
-17.989691 -17.78866 114.54639
40.026318 -17.921053 110.10526
-27.216496 -4.9725084 114.39175
-31.799999 3.4000001 111.4
-29.431818 1.1477273 115.81818
-5.5 -25 121.25
-21.700001 -13 120.55
-18.222221 -15.888889 120.66666
-25.57971 -7.0869565 122.56522
-29.44186 2.5348837 121.23256
0 0 0 1 0 0 0 1 0 0 0 1 0 0 0 0 0 24 1 0 0
