ply
format ascii 1.0
comment PCL generated
element vertex 68
property float x
property float y
property float z
element face 0
element camera 1
property float view_px
property float view_py
property float view_pz
property float x_axisx
property float x_axisy
property float x_axisz
property float y_axisx
property float y_axisy
property float y_axisz
property float z_axisx
property float z_axisy
property float z_axisz
property float focal
property float scalex
property float scaley
property float centerx
property float centery
property int viewportx
property int viewporty
property float k1
property float k2
end_header
93.81208 -56.772537 108.0799
50.607113 -83.418503 118.64388
53.273781 -83.418503 117.51055
77.940445 -75.585167 110.01055
103.19534 -30.300852 111.19682
46.624062 -83.808334 121.82693
58.607113 -73.418503 121.09388
82.82933 31.664837 126.34388
77.260956 39.055859 127.52337
-11.247051 -64.897667 138.4897
-13.294849 -64.418503 140.31445
-7.3928871 -64.561356 139.84387
-12.329891 -57.012985 141.98561
19.940445 -59.085167 141.84387
-12.700176 -48.277874 146.08086
-4.5570107 -48.445217 145.53471
-23.890537 -38.34338 148.41194
-12.528019 -38.209038 148.27631
-30.499271 -29.567436 148.50345
-25.504002 -32.085167 148.62164
-40.792889 -15.218498 148.84387
-33.005787 -18.095919 148.84387
-39.077099 -9.6027107 148.50177
-38.6786 15.105312 148.36768
-37.392887 15.581501 148.64388
63.307114 16.181499 139.84387
-39.892887 18.081501 148.34387
-37.392887 19.692612 148.0661
37.456738 22.081501 147.62959
56.162159 22.75581 141.32094
27.748959 32.163059 147.97508
54.044613 31.657887 141.43414
-27.017887 41.706501 146.21887
26.91938 42.023884 144.63197
36.383369 49.736752 141.19547
-5.6370735 -37.476639 150.30899
-3.0453682 -27.414953 150.9006
2.6071129 -24.218498 151.34387
-2.7404823 -18.188553 152.48024
3.6581345 -16.122581 152.62959
-31.965199 -8.0677299 151.21002
-22.66013 -8.1146202 153.23396
-3.0341301 -7.8676529 154.37494
6.1003571 -7.327282 153.75266
12.607113 -3.7518311 154.1772
-30.681622 0.98291016 150.87909
-22.761425 2.0685692 152.50121
-12.931164 1.9092522 154.4276
-2.5309029 2.2352524 153.46373
7.4207153 2.0928345 153.58443
15.776604 3.3696365 153.55574
23.334385 5.945137 152.66205
-21.361416 12.805279 151.34737
-12.913532 12.237465 152.83011
6.8644066 12.204842 152.63963
16.993748 12.04451 152.50258
26.51244 12.409904 151.65749
33.785683 14.902931 150.09387
-22.561207 20.244869 150.85378
-12.708103 21.842373 151.33572
-2.5885429 21.960728 151.73276
7.1990051 22.265285 152.08981
16.920109 22.188931 152.05873
26.536022 21.420364 150.76804
-10.868298 30.876583 151.14442
-2.8515663 30.887287 150.9761
7.8710518 31.481129 151.10037
-1.5595512 37.581501 150.01054
0 0 0 1 0 0 0 1 0 0 0 1 0 0 0 0 0 68 1 0 0
