ply
format ascii 1.0
comment PCL generated
element vertex 37
property float x
property float y
property float z
element face 0
element camera 1
property float view_px
property float view_py
property float view_pz
property float x_axisx
property float x_axisy
property float x_axisz
property float y_axisx
property float y_axisy
property float y_axisz
property float z_axisx
property float z_axisy
property float z_axisz
property float focal
property float scalex
property float scaley
property float centerx
property float centery
property int viewportx
property int viewporty
property float k1
property float k2
end_header
82.545494 -57.556488 65.262779
102.56977 -19.59622 61.195457
85.142067 48.910271 68.020561
72.569771 -59.67955 75.362114
70.455139 49.11454 82.967934
80.994019 45.917938 76.429176
57.217392 61.832352 85.404976
67.502304 57.524017 81.36512
25.683105 -60.83622 100.56211
37.12952 -57.694756 98.021446
47.581367 -57.204918 93.775154
52.459339 -44.137253 98.424431
56.643368 36.338844 99.108864
64.06311 37.923782 93.262108
39.637913 51.514275 100.23228
53.844513 48.145966 96.518364
64.553284 45.40493 90.895485
26.741096 59.493164 100.56043
38.107651 60.315392 96.948814
8.3563461 -54.684952 106.21703
22.033653 -57.162758 103.999
7.6887436 -44.013729 112.02934
22.547035 -44.295643 109.55575
36.514957 -44.532516 105.2784
-22.587532 -28.640228 114.17765
26.081188 -27.541426 113.86486
37.150021 -28.094986 110.96336
38.136379 31.627108 110.20388
24.694527 46.459991 107.56626
37.060238 46.059547 105.32351
-6.4323044 60.165627 104.05039
22.849693 59.273216 103.0817
-1.1459732 -12.074748 119.48174
6.4768753 -17.75469 118.79107
17.559357 -14.53372 117.76836
-3.5913391 1.2260017 119.76211
6.9031067 2.418066 119.84783
0 0 0 1 0 0 0 1 0 0 0 1 0 0 0 0 0 37 1 0 0
