ply
format ascii 1.0
comment PCL generated
element vertex 20
property float x
property float y
property float z
element face 0
element camera 1
property float view_px
property float view_py
property float view_pz
property float x_axisx
property float x_axisy
property float x_axisz
property float y_axisx
property float y_axisy
property float y_axisz
property float z_axisx
property float z_axisy
property float z_axisz
property float focal
property float scalex
property float scaley
property float centerx
property float centery
property int viewportx
property int viewporty
property float k1
property float k2
end_header
12 -11 88.75
14.33871 -4.3225808 86.6129
14.944445 5.3888888 85.541664
24 8 89
12.432432 12.891891 87.162163
26.225275 -13.043956 98.609894
26.338255 -5.2536912 92.990601
30.851065 -8.1773052 96.496452
30 6 92.555557
24.127529 14.389622 91.543533
30 10.307693 92.846153
17.425198 24.204725 95.102364
25.404625 -16.475916 101.40655
31.6 -10 100
-11 -11 117.71429
-12.588235 -8.8235292 115.35294
-11 -11 120
-7.96 -11.76 121.88
-11.076923 -9.6923075 121.53846
-5.352941 -6.647059 131.94118
0 0 0 1 0 0 0 1 0 0 0 1 0 0 0 0 0 20 1 0 0
