ply
format ascii 1.0
comment PCL generated
element vertex 46
property float x
property float y
property float z
element face 0
element camera 1
property float view_px
property float view_py
property float view_pz
property float x_axisx
property float x_axisy
property float x_axisz
property float y_axisx
property float y_axisy
property float y_axisz
property float z_axisx
property float z_axisy
property float z_axisz
property float focal
property float scalex
property float scaley
property float centerx
property float centery
property int viewportx
property int viewporty
property float k1
property float k2
end_header
-5.8430176 -23.853205 -37.57515
-3.8430176 -23.853205 -37.57515
-7.5630188 -20.493204 -39.535156
-0.60772705 -19.264969 -39.281036
8.4069824 -15.353205 -41.07515
10.156982 -10.398659 -42.57515
22.356983 -9.4532051 -37.775146
13.156982 -2.8532043 -41.57515
22.156982 6.1467957 -37.57515
19.156982 16.146795 -37.57515
4.1569824 20.146795 -39.57515
-19.035324 -27.122435 -28.844376
31.906982 -11.603205 -27.82515
32.156982 14.646795 -27.57515
19.468094 22.457907 -32.797379
-18.593018 27.396795 -28.82515
-8.8864975 30.103317 -30.705582
13.740314 29.480129 -29.658478
16.611526 28.328613 -30.57515
20.228413 -35.424633 -18.36087
-28.443016 -26.737413 -22.364624
-21.561768 -30.790705 -24.51265
26.656982 -24.853205 -24.07515
-35.381477 -18.46859 -18.959763
-32.538673 -21.461901 -20.444717
-38.579857 -8.2742577 -18.996201
-39.785881 4.3182244 -20.118011
-39.140884 10.040413 -19.660263
37.156982 10.646795 -20.57515
26.156982 27.646795 -24.07515
-8.3430176 38.646797 -20.57515
1.8569794 38.146797 -24.175156
8.0319824 38.271797 -19.95015
5.1569824 -41.603203 -15.32515
12.799839 -40.924633 -13.218002
20.856983 -37.308758 -12.641815
26.442696 -34.281773 -11.86087
24.756981 -32.853203 -16.175156
26.871269 -31.924635 -15.646576
-36.843018 -17.853205 -16.07515
37.545872 -20.40876 -8.7973785
-41.176361 -7.1865373 -15.741821
-41.69487 1.9616108 -15.871445
44.031982 3.2717957 -7.9501495
-40.131905 12.835685 -14.730698
42.656982 10.646795 -9.2418213
0 0 0 1 0 0 0 1 0 0 0 1 0 0 0 0 0 46 1 0 0
