ply
format ascii 1.0
comment PCL generated
element vertex 1502
property float x
property float y
property float z
element face 0
element camera 1
property float view_px
property float view_py
property float view_pz
property float x_axisx
property float x_axisy
property float x_axisz
property float y_axisx
property float y_axisy
property float y_axisz
property float z_axisx
property float z_axisy
property float z_axisz
property float focal
property float scalex
property float scaley
property float centerx
property float centery
property int viewportx
property int viewporty
property float k1
property float k2
end_header
-15.993042 28.360195 41.052429
-34.398033 -36.022564 -16.213814
-29.251833 -42.788689 -6.7013359
21.886589 47.343708 -4.5345764
-5.4209976 -1.8292007 -51.968693
8.263546 -48.752106 17.105858
-49.493156 6.1268883 15.668381
2.8264694 5.6866646 -51.966187
43.849251 -7.6408844 -27.58387
50.075081 2.8195229 15.137733
43.477097 12.95303 25.931526
27.378197 -1.9860268 44.499054
48.785065 18.230518 -4.3270035
23.444206 46.735615 -1.537014
-21.134693 41.514057 -23.637228
20.031136 16.143642 45.617653
-22.248339 -27.958538 -38.329754
-43.046219 -8.1477547 -28.502758
-47.507397 -11.533077 -18.447918
-30.74984 -15.963737 -39.200256
-7.0670471 47.404873 20.81662
16.646797 41.724613 -26.992012
-31.509636 -24.403254 33.819878
-28.346535 18.414135 -39.910301
21.560776 -19.308044 43.498398
-0.065448761 -52.282097 0.42900848
-7.3281822 -41.330093 -31.366938
14.051003 15.07851 -48.104843
-47.706703 -20.840427 -4.5700989
-38.173588 -4.7438087 35.318207
-19.619225 24.88464 -41.566044
12.036209 -47.182472 18.977089
-15.505955 -44.889824 21.85247
32.298981 -40.722778 -6.4524574
44.871124 -19.512127 18.766281
-41.184067 -32.14917 -3.6140327
-39.804123 -24.482416 23.572884
34.539795 -37.017487 13.515228
17.07251 45.03043 -20.590733
35.342148 -2.4696579 -38.43306
-23.234755 -18.41135 -43.19751
-35.620773 -30.416904 -23.33494
39.786514 -29.404135 -17.13628
-39.162521 -7.9097366 -33.863457
19.133659 -3.6793823 48.651138
-16.705921 -7.2341194 48.993233
-37.878029 -12.302628 -33.779945
-34.166439 -14.150936 37.021065
-39.171844 -32.461483 -11.915241
-10.38287 -7.1103821 -50.758389
29.951935 -38.689381 -18.528393
27.850693 -20.356632 -39.240002
38.886559 -4.1277008 34.775635
-43.906063 -28.580469 -1.2947083
-40.883873 -31.035997 10.342125
-12.053215 -28.460173 -42.168762
18.596596 37.189724 -31.878052
49.79538 -12.03093 -10.231014
-30.967854 3.4324379 42.044334
42.725777 8.9924965 28.872955
-27.680504 23.921787 -37.430523
-33.846409 -1.7521858 39.905487
-26.428669 -28.420443 -35.104031
41.734085 -30.513407 -7.7764053
10.747314 42.387287 -28.860014
-12.362732 39.332104 -32.262451
10.042942 -0.1231041 -51.42094
1.2194786 30.128834 42.66774
-8.6051826 -40.733109 31.805298
-5.4613914 -22.302586 47.038322
30.457092 34.64613 -24.754705
25.202164 13.81731 43.595284
47.684669 21.449261 -0.2626152
33.418144 33.353344 -22.622686
-41.613998 -24.115191 20.372162
11.468178 34.965572 37.217812
8.4106865 -42.797218 28.830292
-33.929939 -26.005463 -30.22216
48.07093 -15.77486 13.306129
11.15049 -16.451664 48.485695
-5.2434425 18.846264 -48.502247
-51.612114 8.3647652 -2.8641853
-33.980736 -11.278286 38.246941
46.146255 -9.9453163 22.375717
-17.031544 39.140484 30.291374
-26.019306 -43.634071 12.47139
38.543259 -10.819149 33.606255
-20.779537 -41.598869 23.961395
-34.117653 39.680256 -2.5643311
-13.347717 23.966679 -44.621387
-31.911222 -7.2641716 -40.744259
27.702209 -43.998165 -6.0023613
-19.335819 39.996494 27.721336
45.093155 6.5137711 -25.767729
-1.5280571 34.289371 39.400566
-25.662775 32.547756 -31.990374
32.773605 11.147671 -39.343796
-42.205185 6.4594383 30.184769
25.752907 38.316929 24.399925
34.474815 -16.359062 35.871086
32.913361 -6.4129868 -40.197678
-17.267597 40.082615 28.69062
39.140831 -19.92025 -28.432711
-26.071194 36.223255 27.224197
-14.175056 45.251453 -22.330187
-42.253269 29.976757 -7.2481804
-0.35019684 18.782688 48.783737
19.878204 -13.552235 46.541748
49.908264 -14.809479 -5.3031158
39.37635 13.366535 -31.586002
-12.577747 -39.327759 -32.064674
42.761559 27.186756 12.716728
43.040382 29.845272 -1.4759445
46.800117 11.605839 -20.108101
30.598366 32.450665 27.264633
44.826248 -3.0338402 -26.604836
-21.122225 41.501179 23.65274
-3.4948654 28.5452 43.781555
35.447906 -37.43264 -8.9624062
-43.904148 -18.397808 -21.574911
-38.916302 30.122005 -17.989113
27.316078 -34.493225 -28.318865
-18.730797 -1.6852188 -48.762466
30.798218 -2.1656151 -42.15461
-35.823288 -34.553749 -15.786491
3.6495819 -31.60005 41.458649
48.164543 -10.303894 17.413635
-7.3897362 -30.164751 -42.087502
24.086502 -31.508799 33.990013
-30.209148 -10.432907 41.356476
-20.921303 27.506123 39.170738
46.987991 -22.243443 6.3171692
27.809547 1.1548576 44.397072
-51.178505 -10.352249 0.028259277
-27.84754 -42.15881 -13.349125
-7.4128342 -45.164371 -25.179398
-22.039301 -33.072124 34.061066
-40.062729 -31.488218 -11.797012
17.474907 -49.29171 -1.9513054
28.865288 -9.1083755 -42.761467
-39.933388 -23.576605 24.396919
-43.664635 -23.353535 -16.801338
-45.054455 -12.659016 -23.594652
-48.080906 -19.216461 -6.7172813
-29.641636 -39.917885 16.03952
-32.012428 13.717579 38.90667
9.397892 38.922268 33.756706
35.574066 -8.1046104 -37.389011
30.963631 40.130123 -12.735992
-31.832977 39.81686 11.954247
17.322968 -36.133701 33.561287
-41.7444 -8.7587433 30.326134
-1.0997696 -38.909122 -35.000401
-25.589067 -8.5803337 -44.774334
44.41674 23.259983 -15.061455
-27.314177 -25.661774 36.4104
-19.669712 44.5714 18.927711
21.420311 -46.645885 10.285946
18.622025 -44.112381 21.165924
-6.2993546 34.788624 38.469284
-45.72784 24.028614 8.1546021
-23.441982 41.657177 21.297165
-37.480534 -3.5762749 -36.239403
16.648964 -49.667488 -1.454792
-12.125675 -21.845642 45.941368
3.7710228 34.219257 -39.489628
1.1247864 -45.311535 26.135201
23.659065 45.424892 10.301723
33.88002 -7.4058609 -39.18589
-40.401215 -16.103329 -28.901375
-20.693031 13.529774 46.088417
25.030052 35.721256 -28.946146
35.835968 -12.764805 -35.899254
43.856697 -26.79236 -9.3835869
-48.998272 -3.4483604 17.712685
-44.833672 25.628742 -7.7116776
42.513733 -25.417376 -16.728722
-30.017853 2.580265 42.772743
30.503929 -7.0051537 41.806038
-2.2823715 -46.978485 22.716576
-29.392935 -0.58004379 43.243599
-6.0008583 -10.755856 -50.839554
12.216949 0.50634003 -50.912983
29.219612 17.319736 -39.690071
48.609856 0.9005661 19.573029
24.163681 20.780018 41.471924
-7.9064445 47.068363 21.319489
-40.563293 17.378681 28.041611
-42.489407 6.7791557 -29.681498
-21.935335 -45.444519 -13.911758
-28.920984 -43.466148 -4.1920776
40.125626 24.167667 -23.473957
7.2730675 -30.610943 41.90538
27.161453 41.494244 16.62677
-28.457438 3.6747017 -43.8531
31.964638 8.2731438 40.559998
-3.4752235 45.636074 -25.232557
-5.2201614 -41.80481 -31.144119
-36.913383 -18.536682 32.02581
-15.894684 40.454502 -29.066404
-50.710747 11.984592 5.0745888
-47.456013 -18.034698 12.473999
-48.765278 16.783428 8.8997459
-32.991325 -9.5639 -39.550953
38.817261 -21.374737 27.887283
-14.038696 45.491833 21.82029
49.328789 -7.997345 15.740913
6.3425255 -21.777367 47.238014
48.056671 -17.264332 11.798531
-24.450735 -40.939114 -21.615942
46.131348 9.9960899 22.574966
-31.363829 -39.896435 -12.94104
45.909103 -8.7026329 23.554283
-50.069016 6.8842583 -13.180092
10.112499 37.396038 35.245819
38.786949 13.674007 -32.170242
-41.467106 1.2450027 31.728233
39.055733 -33.875488 7.8973999
32.343048 -40.557762 6.1781731
-23.234341 4.8028145 -46.614056
-28.024958 8.7881813 43.384819
-2.2725296 -45.621483 -25.641125
43.539413 3.5358429 28.630997
29.559135 -40.826252 13.636307
-13.005779 -24.697216 44.24028
4.8700562 27.103024 44.531372
-6.1717453 -51.466263 -6.8379898
3.4329262 33.291729 -40.170948
-8.1706772 -11.808174 -50.293888
-13.803909 -16.274452 47.866905
-9.5933685 -38.124817 34.403221
-1.5317268 34.76585 39.134827
16.139206 41.793659 -27.099602
-24.525711 -13.855522 44.035858
-22.325651 -1.9889259 47.258514
10.490986 -24.591475 -45.008747
-7.2526016 32.795391 39.977242
12.831337 20.413502 -46.521294
-33.620544 -36.379463 17.105957
-14.847775 -47.214832 16.812439
10.609283 31.737621 -40.24757
1.7996864 -21.361233 47.631027
2.4207954 40.842678 -32.60218
29.925911 39.917736 -15.596714
-36.269665 -3.8385201 -37.425125
-47.585548 -9.8225212 19.263359
-19.534389 43.090656 22.195564
-43.003998 14.273815 26.210945
-2.8792191 34.340885 -39.314362
-41.863411 -15.990532 27.020287
44.521194 -10.701199 25.388962
-24.072565 35.601818 29.862221
32.38813 -6.8974419 40.575012
-40.970703 32.458363 -2.3939323
19.704681 38.135441 29.820778
-8.369236 -44.228943 -26.786827
-31.545835 39.772953 12.952927
-33.20435 14.921886 -37.437775
-47.481548 17.369862 -13.754337
-49.795986 -15.76503 2.8184509
-12.447716 -31.359003 39.884674
4.7337418 23.766209 -46.471588
34.82032 36.858662 12.817215
22.782204 46.408703 7.9475327
-41.257053 -28.879547 14.479286
-5.1513405 -44.525509 26.977814
-49.193596 -15.265594 -8.9993896
40.818604 -29.491142 -14.41264
21.000374 -23.013971 -42.031342
38.521812 2.6179428 -35.265461
25.393349 44.347218 -10.825916
-18.587753 27.99152 -40.155712
-18.585064 -25.248407 -41.886925
43.388542 10.978809 27.051773
47.765198 5.5467987 -20.483101
-47.921028 11.801136 -17.303143
46.690193 -6.1499481 22.715775
41.916481 -31.218094 2.2339706
-46.005333 23.884617 -6.4050941
47.291298 21.954754 -3.5486794
38.215874 -34.156151 -10.677368
22.774345 42.209911 20.993195
-37.137154 34.975002 -11.528027
-32.611588 -11.416973 -39.304695
-42.365982 29.948338 -6.3144798
-3.2707634 44.339008 27.575882
-15.158752 -49.626648 6.806427
0.82444763 -3.6744881 -52.25264
-48.608681 -16.086052 -10.980083
34.875214 30.513493 24.134613
19.183533 34.716541 34.217148
-14.581264 45.775547 -20.49556
-24.147509 40.185917 23.009201
-4.1477013 -37.647659 -36.210384
27.833107 -27.251556 -34.778656
4.1954765 44.057644 -27.764431
20.335907 25.325527 -40.972221
47.098824 -20.775642 -9.7512016
37.90303 31.491283 -17.322422
-21.319883 -16.250214 44.839256
24.758705 -27.577995 -36.961159
49.192215 5.9993782 -16.448959
-47.592468 16.216618 14.328964
33.381432 -7.6692734 -39.439327
3.8139343 13.756115 -50.271282
10.966076 15.013927 -48.931259
-7.5788345 -20.609402 47.440262
-18.848183 -36.847633 32.053764
-33.41338 11.343311 38.54274
-16.037251 23.554585 -43.809708
12.865799 -25.891171 -43.529278
44.858383 8.6483383 25.626419
43.73394 -2.0804062 -28.766031
-35.810028 -20.193844 -32.506355
-46.846855 19.907574 12.058388
22.584343 1.5746117 47.128952
12.669006 20.706997 -46.291954
-38.106224 35.691196 -3.6497078
-21.317074 -47.781113 0.075553894
-2.5173531 -47.77351 21.194771
23.793198 -9.9524536 -45.505882
-32.929909 -40.002861 7.4820824
-19.210403 -48.15081 -7.6103554
-33.574272 -6.8444939 -39.45631
-7.9194832 44.406185 26.572639
-28.025511 41.301952 15.348915
-8.4396172 45.887867 -23.672333
17.615028 -21.422966 44.373093
-47.899113 -21.127853 -0.37134552
-41.69767 -29.286406 11.784233
1.4923668 23.278072 46.773232
-48.922661 -18.762856 0.61705399
-50.539421 -13.047264 2.6783257
-21.619642 -45.934059 -12.389984
-30.947544 41.811558 4.8483734
-36.174145 -37.719444 -0.059188843
46.562202 -18.191113 -15.613277
45.022911 -19.086037 -18.731735
42.293945 21.673717 21.771683
-25.829668 -8.4411926 44.798996
-44.068333 20.690174 -19.292534
-48.121506 19.181149 6.6578903
-23.160385 39.039623 26.179695
-39.433754 -19.867355 28.1325
-20.13813 -18.245945 44.806786
-20.506693 39.469433 27.369843
-29.515282 42.196293 9.65662
5.2440338 -30.742405 -42.029442
40.789742 -30.382496 -12.205692
5.2148438 -44.833614 26.544403
27.6175 -33.559639 -29.234823
-40.228569 -5.9786873 -32.771782
3.4131088 26.073399 45.334442
-12.571354 4.3665009 -50.501915
-10.41428 -17.759666 48.156036
24.739845 35.926304 29.029236
-35.552895 23.618046 -30.156683
-4.8451042 -48.930801 17.702408
-18.861534 -27.601736 40.285645
-32.112572 37.6675 17.037537
-48.534313 2.0483093 -19.259644
0.18802643 -23.928669 -46.616337
-34.495728 -32.308548 -22.42234
44.445923 -10.424938 25.351944
-24.761269 -44.253685 -12.491291
7.6502953 -47.506435 20.473808
46.275223 20.450428 13.68364
-19.119488 42.672199 23.60878
-13.154854 27.352543 42.594299
-26.381897 -22.632877 -39.086327
-51.446918 -8.9477081 -3.3728447
7.0709572 -45.302605 25.262642
-36.862583 -35.753212 10.055431
-1.9788284 24.359058 46.153282
-33.769264 -27.976393 -28.669397
-13.557449 38.013195 -33.296387
29.619537 26.475857 -34.045036
28.880661 -34.131012 -27.212095
10.799889 -51.16436 -0.86439514
40.992767 -11.01955 -30.628494
21.938141 36.95837 -29.927362
13.675507 -49.482082 9.9484482
26.615616 -7.13134 44.549355
-30.415848 -10.113426 -41.465294
-30.100031 35.123829 24.373108
49.291389 2.032814 17.542686
-32.084251 31.058315 27.163574
-18.111954 29.449459 -39.318062
30.213692 31.656628 28.812103
28.485435 -6.1147041 43.51825
-2.9080353 -51.9259 -5.3033218
34.133125 38.781612 -8.697361
45.498238 -25.198719 -5.9078102
19.487274 -37.059059 -31.492975
-3.2768478 40.732838 -32.66703
-43.534813 25.886341 13.03157
-14.930763 -16.909355 47.101143
4.6009712 3.0152779 -52.024029
37.619537 -35.812435 5.9594765
-47.553764 16.842876 14.180893
41.796776 16.863789 -26.751671
29.945572 -41.593834 -10.484436
-19.081322 27.439907 -40.198994
-15.905293 47.278637 15.679642
-17.663692 38.173908 30.96299
-31.938431 -20.924305 -35.851868
-50.892376 -2.5243492 11.484795
-27.515942 -7.3109131 -43.908718
16.897011 -48.983727 7.048645
27.278267 -43.131592 -11.468269
12.453506 -39.900139 31.342743
-28.778048 -17.930412 -39.738201
-29.03458 -30.296831 -31.127901
49.891785 15.805088 -0.85026169
-47.899105 -20.789944 -3.0900002
-13.07341 -42.567787 -27.592594
44.832275 24.869061 -10.097
-30.096552 39.222202 -17.009392
13.90255 -45.189327 22.58519
-16.868877 -48.997589 -7.4778595
31.694588 16.887913 37.934021
-37.778515 35.856869 -4.6935463
-23.468647 -13.532459 44.68811
8.3661766 -41.756298 -30.525454
-43.69265 -10.838142 -26.507431
-32.522141 -17.004448 37.346703
-6.3933525 37.604969 -35.854034
49.999168 11.393215 9.9227829
-22.783564 -42.286507 -20.475739
3.3889313 -25.959612 45.252502
-44.579182 -21.323711 -17.353016
-15.808475 -39.739155 29.991333
-44.502953 -21.591648 17.043762
-42.671455 2.8634987 -30.276489
49.861885 12.288616 -9.8090096
-43.147987 10.592052 -27.643026
-2.6921577 -19.176231 48.496742
-13.014629 46.367817 -20.211891
-49.039135 8.8235893 16.079987
-33.305904 -35.877525 -18.607082
-38.236843 26.411686 23.953789
-2.4067688 -35.734032 -37.99939
-25.2344 28.292408 -36.109364
-46.057526 24.857784 1.7022362
3.8231392 -25.082958 -45.658463
-16.149326 -49.456135 5.6324272
-22.611208 20.494198 42.510391
13.463799 43.423283 -26.069357
-47.692844 -12.874386 17.173256
25.322395 24.489361 -38.773647
46.570488 -21.976608 -9.2411079
22.41861 -38.305378 -27.650499
2.6937714 -30.894241 -42.180565
-30.546631 -38.031021 -18.722801
-4.1478577 37.740322 -35.923851
25.625847 -4.5780602 45.28801
27.943718 22.12981 38.275909
35.942917 18.927807 32.949562
44.959518 -20.555817 -17.271927
45.56955 24.160267 -8.3684769
28.151604 -44.032665 2.562252
44.286697 27.75333 3.9518356
-51.029476 11.235859 3.3655739
24.544434 -8.7852898 45.32431
-34.821114 -31.17979 -23.398615
45.746429 11.168377 22.795784
33.945251 -23.753107 -31.801558
-50.306488 -0.0036087036 -14.400784
-3.1139145 40.03046 33.602432
47.080132 0.72758484 -22.828232
-44.227215 -20.900021 -18.566189
-42.865601 -29.029428 -7.9477959
-26.17276 45.224407 3.9701195
-8.9699516 -34.232376 38.445786
42.864693 28.548588 8.9591599
40.088661 -7.9450836 32.66967
-7.0594749 33.529819 -39.436192
29.607605 43.021259 -0.19969177
19.246956 42.212376 -24.256107
15.90654 -49.199436 8.5497055
-41.948975 -4.3135834 -30.826458
19.052979 -47.993866 8.5607185
-46.178711 12.66695 21.29808
-7.8585358 -30.533884 -41.813152
34.250679 -3.4105263 -39.425957
-49.216694 -10.838715 -14.181709
29.841454 37.870968 -20.520645
-16.885521 23.46426 43.545876
22.618774 40.598095 23.893707
7.4215431 -39.31839 -33.676491
25.565361 35.809101 -28.136276
42.480537 -15.338306 26.500771
25.737846 25.918331 -37.451706
-52.067242 -5.1564713 1.7352371
41.979012 -17.033382 -26.333111
-43.545353 15.704632 24.538315
-34.730442 -21.169502 -32.976364
-27.301741 9.1602135 -43.576283
20.582733 -33.245033 34.621185
26.986084 22.721638 -38.609127
-3.542057 -25.64665 -45.571552
-13.383438 20.418919 -46.348114
-29.175987 43.297802 -3.8729057
-5.9837036 7.3534584 -51.449757
15.261414 -12.593281 -48.421894
31.928154 -7.2177391 40.752907
-48.326496 11.176838 16.696899
16.570122 -29.57407 39.7192
33.138435 -22.400736 -33.61718
-40.803055 -16.415062 -28.237087
45.37413 -13.103992 22.507706
-20.358568 48.034031 -2.1968765
-43.498405 -21.423347 -19.837795
19.547157 15.260342 46.170891
21.749634 -22.937275 -41.577679
19.061638 9.1996841 47.863297
-42.749371 21.9669 -20.865009
19.707382 46.191753 -14.354877
-14.295769 -50.092125 5.1808472
33.510605 17.599499 -36.177872
-51.082973 7.8773041 8.6231003
33.216248 -38.936146 10.521534
-49.893127 -10.943909 11.224152
21.176186 40.707203 25.287827
-42.197853 13.593563 27.638847
23.526909 -36.97163 -28.622223
46.835228 -22.058105 -8.0230942
38.682327 -3.1631966 -35.00766
-12.851189 -38.485603 -32.922836
38.72216 4.8873291 34.743195
-16.25668 42.970852 24.881905
37.470352 35.410709 -8.5110741
-35.351543 21.949665 31.549423
41.11528 22.09573 -23.802526
-12.82806 -34.749458 36.923164
23.477798 -46.71352 0.66465378
25.486183 -12.257416 43.964706
19.555267 32.857578 35.823761
16.793854 -45.430004 -19.882156
0.50307465 -51.080742 -11.537296
1.4878197 21.107487 47.745071
15.498543 -37.171066 33.47245
41.441101 -10.042671 30.380547
26.929192 43.111057 -12.223553
-30.905703 20.730961 36.705383
-35.110962 -10.343349 -37.259323
41.335007 -19.735588 -25.217087
35.729782 -21.808655 -31.327713
29.987396 16.439198 39.693375
5.5603676 18.81802 48.515442
-14.177299 -26.594963 -42.668266
38.192146 19.039875 30.144051
-13.905834 -47.195023 17.607056
47.192749 -12.025833 -18.922623
-1.4675446 32.333736 41.207985
-31.603857 -0.14215851 -41.608753
20.171417 46.213657 -14.177303
-23.254593 -11.420498 45.480865
13.418617 -36.568222 -34.775673
17.717239 -30.518763 -38.694515
46.702965 16.059528 -17.399197
10.92907 -49.73563 -12.182091
35.176651 -26.059824 28.526497
2.0028305 -52.226418 3.6588287
35.53804 36.92152 10.131542
-10.643677 47.608311 -18.744366
-51.097225 4.02985 10.185635
11.03278 -39.933979 -32.044086
-28.720106 36.67992 23.610268
41.525093 -25.382105 18.924339
-50.186306 -2.4634781 -14.440063
47.701202 -21.042843 -5.0660019
40.617714 -32.973274 -0.3447876
-45.811668 -23.710014 -8.8918648
30.712013 -41.538502 8.1173668
49.706459 -14.17329 8.1453133
-38.316921 28.50684 -21.590748
-1.9153366 0.85764694 -52.316528
-26.286686 45.126873 2.4673424
-15.131519 43.086681 -25.711639
-0.047481537 46.152805 -24.550207
41.999428 -29.969816 -8.0189552
-20.214272 -42.082245 23.444138
15.80439 -17.776642 46.497116
45.013855 -26.643597 2.3335075
18.216423 45.790005 17.350769
-11.631474 -49.242737 13.415924
-22.933216 -28.597586 37.420113
0.56171036 43.664501 -28.78993
14.05336 36.694683 -34.565773
43.823929 16.537434 23.324745
50.081085 -2.6968193 15.188309
15.991814 15.478657 47.407738
-36.405415 32.495251 -18.843182
-43.620773 17.858143 -22.832092
22.127213 -37.592522 -28.751808
26.377609 -32.65881 31.214058
32.75312 21.433521 -34.858047
6.5870438 -51.832127 -0.80293655
46.562775 0.12527847 23.981377
20.844322 46.349888 -12.010067
-48.514389 5.9796333 18.782013
-28.631323 -5.6757736 43.525444
-28.022285 -42.211662 -13.061516
37.764076 -24.861841 26.365402
-50.74894 12.811947 -2.7023315
-43.854401 -28.446306 2.483696
41.097878 -32.390396 1.2763252
-17.77906 -14.32143 47.070412
-18.941418 -7.9644127 -48.172592
-50.865051 -5.794323 -11.011726
-28.251156 -26.359755 35.353294
47.255615 -12.457809 -18.439709
18.515953 -20.26384 -44.523468
-8.5916862 5.1140099 -51.259808
-41.477272 23.941906 21.128601
-1.073967 -39.387707 -34.317749
-19.570786 -35.452545 -32.968613
-29.21575 -12.190971 41.525681
-33.693565 -9.3855972 39.028641
-18.223026 -40.509842 27.658722
-13.411144 22.887539 45.069725
13.237183 42.767307 -26.908104
49.831474 -11.432037 -10.979237
12.034088 46.413776 -20.884315
-9.6860504 -32.657631 39.572334
4.3121567 17.920437 49.025032
12.380936 -50.772823 -3.6568909
-17.344269 44.982372 -20.51918
-16.264809 -48.163849 -12.212147
-17.654545 43.458729 -23.207802
-0.64695358 4.3868256 -52.074844
-30.57329 33.31271 26.229637
32.006836 -24.437992 33.242706
23.772888 1.6738663 46.534096
17.507828 -47.082371 14.537117
8.4413033 30.861691 -41.286892
0.19000244 -40.345314 33.420685
-28.131266 -41.53231 14.903755
-15.499741 16.649944 -47.127144
43.404221 29.174038 -1.1272278
-47.184391 19.431454 11.309341
23.565399 -43.974819 -15.539768
23.586311 -27.195847 -37.913052
48.448509 -19.602097 -3.3258057
-42.93922 27.686474 11.667465
-10.609547 -5.6026535 -50.963535
2.5727539 13.429798 -50.565948
45.116852 25.315571 7.5057526
-27.752447 -9.6627693 43.246681
-8.9615822 27.402172 -43.664322
-34.221905 -19.609482 34.431282
46.531532 4.4853554 23.613945
-31.221878 41.173092 -8.0902786
37.047043 32.202282 18.111
-41.073124 -29.723394 -12.575409
13.630684 24.774555 -44.0695
-3.3567505 21.803555 47.405045
15.331863 32.063046 38.433594
37.721771 35.159801 -9.0727882
-39.359932 22.226238 26.284172
38.735939 -32.695946 12.590988
-47.448597 -16.114681 15.056969
36.11441 10.905804 -36.176174
39.670448 -32.660645 -9.7850876
19.748787 -1.1786842 48.424026
-31.438395 21.196064 -35.97525
-29.514355 14.176098 40.763603
25.531296 31.039761 33.487213
24.788361 -39.967846 22.782555
-35.400879 16.490002 -34.787086
-35.035027 -22.015289 -31.959862
-46.291039 9.6721458 -22.152937
-25.093428 21.160175 -40.835194
43.973267 16.034161 23.578499
29.637215 -13.962009 -40.732834
36.234619 -33.753555 -16.580391
40.008331 -32.751522 -7.6635475
-51.861294 4.0265427 4.9745979
37.173279 36.157352 7.5892105
36.485413 -33.07901 -17.347923
39.052185 15.999439 -30.945251
-24.651215 0.6749649 -46.025871
41.21344 4.6682625 31.778259
-10.111771 19.193913 -47.526455
6.2878113 4.3866844 -51.723061
-37.657677 22.665188 -28.331532
20.123482 -20.234894 -43.903252
42.096107 11.397022 28.821274
-30.718422 -36.388916 -21.703445
35.346642 -8.754715 -37.484398
-7.1314926 -42.809498 29.316566
32.312157 36.037762 19.680557
15.136627 12.39204 -48.521549
49.635994 6.6494446 -15.021481
49.273689 -12.393955 12.106552
28.63002 43.728054 3.315506
46.312965 -14.647732 -19.62558
-9.0004807 16.258671 -48.900757
23.764343 -12.86993 44.754227
-21.232086 -21.452724 42.672363
10.964722 -50.362869 9.2212143
-30.564138 -11.625954 40.807747
11.140053 27.788502 -42.836529
1.7472229 -26.092297 -45.353432
8.9207802 -31.457138 40.888954
-0.93650055 -47.303574 -22.216969
45.797691 16.51997 -19.186977
2.6720581 -6.5368271 -51.770332
27.183823 17.13805 41.367462
19.510712 24.245235 42.048004
-13.407997 -21.004444 -45.951221
-50.22353 7.4486084 12.719658
-49.846676 -11.138432 10.977104
40.592163 27.574604 -18.161263
8.707119 -50.178291 11.720413
23.590973 -45.787651 8.8041954
1.8747177 -37.697098 -36.223984
-35.588242 37.670498 -6.7382317
9.5786133 42.318645 29.219826
30.479874 -17.427589 38.777473
-31.095917 34.573895 -24.034313
-22.153584 -40.995632 23.740265
9.4156799 40.652409 31.608406
-48.888607 -18.785133 0.16523743
34.43409 24.55003 30.705185
27.773094 -29.251537 -33.458431
-42.050232 30.916515 -1.6277542
33.807991 -39.664516 -4.1370735
16.860947 7.1559906 -48.951725
-31.640306 -9.9219856 -40.344772
-14.483261 45.651371 21.132156
-35.839874 -4.6685295 37.942902
32.206139 1.5971642 -41.142128
-13.308567 44.557156 23.886398
18.36203 -41.511566 25.802643
-18.553131 14.862644 -46.532066
-13.577862 46.911572 -18.556454
-44.740082 -11.951122 -24.367653
38.831276 34.428616 5.7788925
-42.749039 26.230984 -15.064381
43.42704 24.656368 15.308701
-20.482231 37.28001 -30.483889
-6.5599327 -34.126808 -39.044575
20.591095 22.864384 42.256378
-5.9325905 47.396763 -21.135674
27.227356 -30.256102 -32.812553
9.9530067 28.507763 42.603935
-25.28933 -16.219685 42.703102
23.73716 -44.304123 -14.377556
-19.594906 -47.87925 7.4799385
32.378578 -29.960165 28.265465
7.9943581 25.546848 44.918495
-30.880196 13.755482 -40.026634
44.449867 10.441624 -25.341301
44.809082 18.632938 19.527725
34.935158 35.752796 -15.241138
-28.819546 41.642773 -13.12326
20.898087 -36.736977 -30.876873
4.2689171 -40.581169 32.87883
-21.646931 39.950222 25.793503
-34.575558 38.204815 8.5831795
-33.42662 40.201252 -0.86178589
45.762909 23.720692 9.1269913
-45.782272 -6.3913574 24.355492
-41.639347 -30.104856 9.728447
-27.677366 12.151989 42.692665
-10.520981 16.312748 -48.472294
44.124855 23.978527 -14.768715
-21.484138 42.867428 20.937515
32.089882 39.180889 12.828415
46.704086 -12.422127 20.153954
-6.4388466 18.592022 48.525131
6.6866264 -41.102371 31.755058
-28.521099 34.588406 -26.808712
-9.6911316 -40.453804 31.819489
26.154625 45.175579 -1.7888985
-33.645584 27.835087 28.710579
-30.045469 32.64529 27.871979
-48.730991 -17.00198 -8.7247238
21.272835 33.514019 33.938263
-46.329224 -4.1001892 23.931679
-25.027998 31.765316 33.238976
-22.097187 -38.506935 -27.744028
1.2461319 -33.208832 -40.486229
29.664978 1.0762558 -42.967957
-15.404888 -49.963886 1.1708488
-33.353733 32.017056 24.611877
48.096329 -5.1740913 -19.990082
-45.634663 19.377705 -16.864872
47.67469 21.118198 4.0388298
27.113525 -44.475094 -4.5320969
-28.089663 43.369862 -8.2463608
3.9026909 18.656803 -48.812977
21.017059 12.079006 46.419174
1.6402435 -35.044205 -38.767548
-4.9432793 -45.987579 -24.303654
38.0084 -16.449253 -31.892237
-39.982971 33.152737 -6.7572823
-48.869724 -18.592899 -0.62843323
35.516479 -22.343315 -31.404701
-6.6981087 -47.074368 -22.00625
-39.649254 18.519093 -28.837389
4.3271904 2.2059326 -52.162243
-2.2725067 2.172905 -52.252506
16.740532 29.890423 39.56913
-28.063793 44.208378 1.7283478
-15.032417 43.659496 24.773697
-34.038101 38.366467 10.200062
-15.614662 -15.089413 47.647827
-31.358118 -41.708393 3.8903732
29.954147 17.27544 39.318001
31.081802 -30.594109 -29.066118
3.3851967 -2.0732689 -52.134769
-9.7951508 -48.101498 -18.056614
19.705185 22.837849 42.687584
-5.0983582 -51.727341 -5.542675
-10.866982 -51.142838 -2.8762817
-41.323681 20.613117 -24.394196
-5.654377 25.248135 45.498116
12.232697 23.300953 -45.274715
-9.4727974 -39.929878 -32.426666
-40.608727 -10.343475 31.225433
43.767929 10.654987 -26.418676
22.965614 -26.793261 -38.688477
48.822769 -10.156822 15.606682
47.854034 -19.090714 8.9894142
-31.665833 -34.072376 -23.846125
43.994431 -28.003054 -4.3704948
42.115967 30.724499 3.8600388
5.7569504 -46.036827 24.013962
-5.8932724 -14.874973 -49.737679
-42.68623 29.775089 4.2124138
-12.458309 23.78548 -44.902481
5.9064178 -49.189468 -16.820847
12.528427 -49.768108 9.9954529
37.013382 -28.39418 -23.827732
-26.532515 44.539936 6.8155327
-21.72765 -44.8074 -15.735115
25.106308 -42.044781 18.164772
19.826202 9.5288658 47.392952
22.824631 -6.1010895 46.609566
43.48114 10.523487 -27.046394
-25.48032 32.234661 -32.305717
-32.896824 -6.7849045 40.06572
7.8489494 -46.52383 -22.44248
-17.60017 -0.23511124 49.341095
41.4077 24.533321 20.345818
-22.928915 4.8663139 46.737068
-2.8163147 -50.621609 -12.876163
-23.28051 44.923328 -13.167671
14.153389 -34.273346 36.918655
34.806282 14.909794 -35.985237
17.741158 23.622311 43.234917
-26.479645 -14.213821 -42.891487
29.636505 34.220623 26.241508
38.631622 -31.549776 16.02462
-11.993973 35.748981 -36.370075
-19.713646 44.257351 19.872093
2.5513573 3.0200539 -52.176865
-9.7472115 28.861362 -42.570587
42.946159 20.989269 21.430054
-36.982037 28.940235 -23.053341
-19.179665 23.493076 42.524033
-26.563091 -13.483887 -42.935066
25.254425 -12.092068 44.204353
15.026009 36.091724 -34.747662
21.068176 -28.63937 -38.371918
-10.526909 -17.434505 -48.282642
-20.198368 47.944256 4.7683601
-51.021255 3.3310394 11.001076
18.147545 39.388027 29.24498
34.382835 -39.421165 0.86262894
29.755363 2.9071503 42.848862
-21.32476 47.742382 -3.385025
-30.072666 17.649235 38.977982
-14.107853 13.540562 -48.522133
-19.728344 -48.314007 3.2600899
-47.585365 21.878239 0.20664597
9.726387 47.412205 20.07399
30.327408 -34.971523 -24.169436
17.730309 23.888966 42.987442
-9.016201 -16.76923 -48.804073
-40.069988 22.635303 24.708717
-47.445477 21.369854 -5.493084
-14.69878 33.149113 37.808975
25.901558 40.786152 -20.145229
38.520561 -34.738434 7.2072601
-1.1599808 43.512623 29.022148
40.658287 0.78901291 -33.052742
43.071564 -27.806768 10.471218
-2.7808342 -42.251839 30.567848
-47.262863 -5.7211037 -21.850988
-34.916203 -37.16259 11.291931
-31.840097 -11.499603 -39.86322
27.926491 43.346165 8.2330894
20.12178 11.549702 46.975182
-18.332947 33.598225 -35.597115
-6.6498756 -51.622517 4.8021164
48.869423 11.670292 -14.422516
4.8294067 -52.026878 2.1683273
-21.374487 47.643711 4.3755341
-30.118866 -13.63517 -40.623726
30.300026 37.338078 20.74369
-12.807114 -5.0248413 -50.467022
-42.505779 -21.435658 -21.708191
35.74971 33.333027 -18.858234
25.331001 27.037045 37.045975
25.648735 26.584118 -37.107918
16.081535 -10.689034 -48.559875
-51.274956 -0.73070526 9.9933662
-39.081871 -2.8823395 34.654144
34.342598 -29.202789 26.38987
47.389343 13.292194 17.525131
-22.994442 -45.418449 -12.252384
-25.309395 -44.475708 11.250801
38.731224 15.276966 -31.584156
2.0679741 36.954197 -37.068558
-31.395567 41.701283 1.5918694
-38.069809 20.058285 -29.782879
50.082741 14.253796 4.2883873
-50.006237 -10.13295 11.70739
8.3516693 46.916492 21.611343
-41.158215 30.170139 11.444351
17.709892 15.174755 46.856094
-33.88781 34.906406 -18.991074
19.57769 40.391575 -27.002815
-48.308323 18.98016 5.8374481
36.984329 10.850086 35.434044
-5.5234184 -10.652954 -50.920799
12.068459 -4.3814163 -50.668575
49.916733 -15.118103 4.0933456
11.941338 -41.891724 28.821419
27.725189 44.27599 4.2099724
-28.325354 30.06654 32.172012
-0.48498535 -25.871931 45.429962
17.588249 0.035152435 49.175911
-40.808754 -4.4837456 -32.498802
-27.532339 -38.854271 21.478989
49.256721 7.671299 15.786942
29.483208 18.020908 39.312492
47.35611 -21.464386 -5.6718063
-9.5122643 -45.767956 23.6735
-51.828968 6.8680801 0.35667801
47.842873 7.0986977 19.699242
12.467682 -26.55946 43.398689
-42.032124 26.230274 16.477386
-29.655403 1.219902 42.996307
25.353989 42.645611 -16.798382
-5.6061859 -29.298719 42.921638
-39.230904 -26.808949 -21.886076
22.797539 33.347263 -33.1488
31.888504 9.4557571 40.274338
-50.850208 8.6047096 -8.1897545
-33.734261 39.178638 -7.7694016
-39.843948 33.616795 -4.0311432
-44.16711 8.2879181 26.81971
20.866943 -27.464659 -39.235596
2.7848892 14.727215 -50.020981
-40.200909 17.211994 28.791222
-45.800362 -8.622776 -23.860445
-2.6825409 -39.282295 34.563766
34.123177 -33.690239 -20.962299
24.83242 37.784222 -26.407398
-37.707253 24.870358 -26.382587
-6.8168297 -0.70687866 -51.857769
-31.003519 19.146824 -37.642479
-18.941196 14.787685 -46.390984
-40.892704 21.081829 25.039413
34.63916 27.408382 28.183403
-9.4991608 -48.509506 17.40844
-30.194881 -37.215084 -20.838547
19.90657 -45.023438 -17.476372
-23.915487 -46.42173 3.1596603
46.42598 -16.670422 -17.265976
-34.497864 -29.810368 -25.848732
17.68573 -0.53422546 49.327896
45.932884 1.7171745 -25.073858
26.516663 40.482426 -19.770477
33.775627 39.862255 2.5551033
34.133705 26.853344 29.137527
21.686409 -37.522293 -29.234272
43.485542 4.1249428 -28.774206
14.364021 20.787067 -45.765701
44.15554 -6.1200485 27.258698
22.390961 -23.07226 -41.163361
25.104912 36.243992 28.206223
-13.133327 -2.5831299 -50.563145
-44.17469 26.209484 10.357594
-19.829823 36.726429 31.702766
29.950272 0.26558304 -42.845161
32.832802 -11.850304 -39.082191
-9.5181427 -39.819088 32.540916
1.5980911 -40.158325 33.368675
-41.3419 -28.156487 14.985405
-10.884682 36.375889 35.921616
-9.880127 41.778149 29.792854
-23.052748 6.3105392 -46.58448
7.9011765 -30.932552 41.473572
-3.859333 -4.9746437 -51.999149
-6.4102669 40.199345 -32.844166
-36.011002 4.1673965 -37.764706
-33.919006 39.294262 -6.4464264
18.840813 22.02618 -43.513092
23.947052 -41.955536 19.971405
-24.8188 43.234241 -15.559052
22.748932 6.5173073 -46.567303
17.738312 -13.197708 47.351883
-30.64888 -9.9559746 41.298111
-25.531715 39.628735 22.636627
-17.913986 5.8649635 48.739075
5.2522354 29.998081 42.57119
46.50843 -7.3221321 23.010498
24.873795 -13.95266 43.865067
17.491013 -33.779907 35.973907
-38.269791 35.540112 1.8384552
-0.93518066 -12.829365 -50.78569
43.294525 6.2831421 -28.72978
12.561966 -34.566097 -37.132984
15.282516 -43.261086 -25.07032
40.471985 -0.25528336 33.1539
48.532188 13.739231 -13.990437
43.723465 -19.236591 21.199944
27.500771 39.562542 -20.405678
-30.05612 -18.136318 38.769699
-36.571533 35.605015 -11.727848
44.68969 11.264996 -24.752342
-2.1163368 42.548962 -30.434174
23.802979 -38.042416 26.760887
-20.976086 1.3022308 47.852676
30.647797 -40.426891 12.999069
37.993057 -28.547222 21.782181
50.226219 -3.3613091 -14.249664
-48.923706 10.60957 15.170052
44.137993 27.986721 2.5001717
44.263329 -15.9095 22.940414
-16.933117 -11.330894 -48.202393
-44.856319 -25.255219 -9.7908897
5.549839 -17.979527 48.895767
9.1722221 -40.416977 32.079155
-1.3269615 -51.066513 -11.301159
-19.65313 43.135349 -22.022577
5.5012817 38.490253 35.132118
23.242088 30.108303 35.838173
32.96608 34.453861 21.506882
-35.287003 -0.7977066 38.544319
-41.379868 28.804424 -13.928551
42.979614 25.526409 15.38913
-36.234573 10.40147 -36.258644
1.0089645 44.248959 -27.916107
-51.277546 -9.8651848 0.9069519
-14.283283 3.8794899 -50.125809
-50.822323 11.343197 4.0346603
13.763664 -26.027035 43.133888
-0.1999054 -48.672112 19.325127
37.968559 -23.037247 27.536789
17.195404 -37.747746 -32.024807
-15.41309 -10.289398 49.003548
-42.228554 30.509403 -3.6132774
-28.956085 26.751995 34.448769
17.063828 1.999939 -49.407368
-28.497061 30.390217 -31.75613
36.790665 1.5167961 -37.268291
35.18837 25.030796 -29.682096
-16.237942 -44.907688 21.366974
-38.33691 -4.3768463 35.423508
-18.998837 30.674046 37.880951
-27.664196 -35.124321 -26.974333
20.905724 17.363026 -44.623688
-25.228403 -42.190163 17.635712
-16.707798 41.472157 27.049179
15.519348 40.797192 -28.986395
-17.461121 24.711269 -42.599957
-51.683281 7.83181 -3.0547256
-11.307674 19.560528 47.230415
36.863899 -10.667442 35.438675
6.4750977 44.581005 26.577614
42.865463 -18.396812 -23.57025
28.866882 -35.158726 -25.742615
-31.790213 -7.2295036 -40.947868
-7.3052101 -25.826357 44.980843
42.67897 24.439075 17.960594
-47.323376 18.089451 13.112503
-48.075851 -18.586437 -8.8579597
45.173615 17.416759 -19.820999
-9.2177811 -11.097824 -50.183197
15.933594 -37.62648 32.821404
31.926414 -19.680576 36.520958
-6.8130264 -46.501297 -22.789392
-4.493 -49.721947 15.534317
-22.997297 23.813343 -40.421291
31.79084 40.340153 -9.9525871
6.0961533 40.041439 32.970917
-35.967915 1.8300591 37.930946
41.501602 30.753292 8.7964973
29.566467 35.696316 24.46212
25.262497 -32.878937 -31.983091
28.585495 -40.898911 -15.64513
-9.3197441 17.613499 48.344894
-49.545647 3.1115341 -16.652348
5.9913635 34.810566 -38.585091
-18.829784 19.753521 44.746452
-38.950283 -27.41679 -21.570311
-16.204498 -4.4347153 -49.502197
-31.918106 20.406834 36.180824
-14.549824 -45.205406 -22.108088
-5.2509193 21.191257 47.462128
-12.133163 18.6087 -47.29015
2.9550667 -50.494553 -13.38818
12.07431 22.369434 45.790459
40.775864 -18.23959 -27.124353
-32.692757 -1.6998367 -40.794609
29.968437 -22.109585 -36.603951
-40.528416 31.424915 -10.253601
47.221565 13.006069 18.260506
-10.942684 38.87048 33.391449
-20.128098 47.365032 8.9376259
47.830505 20.88879 -3.3192368
-35.471512 -5.7015266 37.946243
10.599224 38.066959 34.201118
-10.780006 44.446529 -25.517029
22.304291 31.184864 -35.592861
-41.412136 -21.938725 -23.216833
43.026665 27.858547 -10.755257
-20.473997 44.998348 16.875336
15.689072 -38.735561 31.433037
-11.428181 -50.938213 -2.4903069
22.046562 43.038891 19.776367
-34.997276 24.305813 -30.362619
-23.651833 -9.3434067 -45.735432
-25.450123 13.522686 -43.590271
11.615944 -31.414005 -40.143177
37.039207 34.529018 13.353149
46.034386 -21.033714 12.861496
-17.260052 -30.830582 -38.452435
42.84127 27.556393 -11.809727
-47.55526 -21.870308 -0.47623444
25.470421 -32.1549 -32.482368
-26.678234 40.046703 20.385406
-34.075382 24.809528 30.878273
-4.976181 17.393154 -49.014614
-0.24906921 -49.048866 -18.275341
19.330994 -13.262535 46.717461
-4.1252327 22.702641 46.995956
-15.627079 -37.082321 33.572105
24.530579 28.11047 36.768715
-17.921722 -42.601471 24.481979
6.9023247 -35.045788 -38.318207
-13.59827 0.36927032 -50.519951
-24.051531 36.190022 29.129196
37.604996 34.491306 -11.545868
1.5221558 47.667515 21.27211
4.2551193 -40.208046 33.247261
-38.469852 -20.902328 28.725281
-24.823669 -5.7396774 45.724945
19.953178 3.45187 48.339088
20.181114 23.885975 -41.870926
-0.34201813 -30.480951 -42.521076
-27.048708 43.89893 8.9859886
-34.240379 39.22488 -4.0021935
19.328461 46.057148 -15.357338
9.2704353 -49.505516 -14.306892
-46.715027 22.585957 -6.3487854
22.24556 32.004711 35.032974
14.440712 -43.745228 -24.643932
12.687943 -50.654297 -2.9293213
31.997185 -38.513863 15.340416
-19.835651 -6.4396057 47.955254
-2.4680977 -4.0749741 -52.188217
48.935623 13.826389 11.848297
18.315033 44.25996 20.828262
-45.624958 20.19244 16.036293
18.439522 44.863758 -19.738754
17.046356 -48.444172 -10.306454
-17.659206 7.4611893 -48.611225
32.748703 -40.678234 0.34646225
14.836456 11.557034 48.716972
-12.032307 -46.21814 -21.488445
-39.197514 32.396313 12.197533
-27.564623 -43.790607 -7.5315933
-45.157803 23.633587 11.958664
-2.4935455 -5.1834793 -51.909321
-1.7877617 -45.20734 -26.424757
-31.543024 34.328419 -23.867155
47.838951 20.204189 -6.6230431
-24.524481 -14.092037 43.909653
-44.374104 10.403278 25.519951
-33.757668 -8.2628593 -39.227013
-19.472111 47.968891 -6.8670921
15.747505 39.848698 29.888123
34.32196 12.318874 -37.464596
22.566391 28.518948 -37.698162
38.443626 -18.294842 30.478127
-10.949909 39.825703 -32.015549
5.4380722 -3.0574532 -52.001278
37.896904 35.586391 5.5485497
20.592751 36.6833 -31.25989
17.209152 33.96442 -36.015244
35.439941 16.5546 -34.765018
-44.609566 -0.59902191 -27.290867
13.813057 -45.975075 -20.861465
-21.1523 39.829556 26.326523
-9.1544456 17.15881 48.664581
39.823219 -9.1252861 32.816536
35.125504 -16.585487 34.911789
1.0992928 -13.010887 -50.617447
33.308182 -37.808933 -13.91785
-30.943747 -23.510244 -35.113445
27.505325 20.86861 -39.212463
-35.720264 -37.103317 9.0605736
13.950439 30.574726 -40.03759
-9.6891518 -48.261158 17.425797
47.610489 -19.446846 9.3887558
15.488434 -49.566589 5.7904892
-15.175182 -18.641796 46.556038
-43.092228 -6.5678749 28.823578
-38.482895 34.565128 -8.2839622
29.330101 -7.1945572 -42.806572
42.196991 16.832638 -25.758888
38.689995 -33.252544 11.541908
-18.009247 46.163906 -16.680737
10.147747 3.9985161 -51.220184
-38.021641 33.814571 -12.337681
-17.655697 -33.24662 36.317757
-16.440029 -18.495003 -46.042587
23.78595 -46.228508 5.2437096
17.772232 46.451603 16.53611
-31.317347 29.105877 -30.181835
-38.31374 -30.097387 19.260864
-50.153992 -9.634285 11.640961
-30.359461 -22.477415 36.092072
28.28624 8.4735413 43.180008
26.922157 44.443531 5.3159027
-5.9449158 34.958561 38.469261
41.171478 28.157497 16.008217
12.278778 -35.500801 -36.486053
13.7258 47.531521 17.249107
39.097267 -21.732903 27.140221
18.586647 -35.221668 -34.011154
-49.001705 1.5757866 18.246254
-32.077682 29.743252 -28.756449
14.97345 22.071186 -45.114586
29.322006 -42.115475 10.109982
-39.962322 7.9360085 32.907158
15.898209 26.907154 -41.931061
7.8143883 12.289715 -50.296799
17.782394 7.0578041 48.778297
46.764557 -23.391226 -1.1993599
11.422661 -23.923504 45.063728
18.489967 -48.912468 3.2978516
-19.991127 33.838451 34.425507
-10.294323 -42.318062 29.078323
-49.508102 -2.6437035 16.885834
-8.1531448 37.179005 35.857895
-10.260818 24.233768 45.130371
-45.512833 -24.188482 9.0206566
47.024895 17.635479 -14.794785
-34.076393 -39.272072 -5.5497551
-39.952896 29.174213 16.698677
42.524376 19.813152 -22.947205
-4.0988464 -48.018284 20.416939
47.87365 20.220631 6.3028908
41.175957 30.048817 -11.48225
21.223755 0.028709412 47.811378
18.992035 47.900517 -9.2465057
-17.494377 -16.863899 -46.417187
-18.606365 15.256008 -46.507877
16.23085 -49.282471 -6.0653267
37.452347 -36.024803 -5.1696129
3.2267075 7.9294586 -51.622852
22.880798 -2.2153435 -47.041725
-20.809086 11.831745 -46.448681
-31.094872 16.347912 38.692513
37.543938 -36.336243 0.13547897
42.461166 -6.1251907 -29.925758
-10.535667 -32.02285 39.936981
5.3223343 46.466328 -23.264217
-4.9166641 -32.324562 40.944107
-17.591316 -33.113773 36.334389
-44.447098 1.1520462 27.728203
-14.940029 19.075314 -46.346275
-29.981144 -28.875946 -31.715103
31.947495 -22.23801 -34.813011
29.109726 -27.015343 34.084923
-0.89221191 -11.841484 -50.945976
-40.648815 -1.4399681 32.940125
-42.850109 29.044056 -7.3364487
-0.23378372 13.940891 -50.436012
37.10788 -33.15551 -16.118671
-31.279198 -41.001915 -8.6444092
43.928238 -27.925768 4.230217
32.227325 -11.813305 39.413071
39.732452 -14.687038 30.619949
-25.790962 41.354206 19.064423
-47.471924 21.748058 2.0325508
-48.5825 2.9673996 -19.250748
-27.974789 9.3575706 -43.256981
-46.215893 -6.8264236 23.50766
8.138855 -39.915249 32.913773
-49.913414 -15.370544 -0.20684814
40.484657 -27.405315 -18.748779
-40.33028 32.897785 5.2701073
49.219124 -16.452629 -6.086647
-18.107243 -47.175568 13.895859
-44.636818 -26.381399 -7.1041069
12.579262 0.67477036 -50.746292
47.306 18.857899 12.118134
-20.721245 35.190342 -32.730236
-19.774441 45.337986 -16.944214
46.631058 2.3111229 23.381561
-0.0041542053 6.6369057 -51.899296
-44.946423 0.85555267 -26.77725
-38.741737 -28.69471 20.411163
32.815208 31.585636 -25.720991
-39.424698 30.303387 16.297951
17.015518 41.104038 27.381554
35.828972 38.186352 -1.0004005
-1.6285934 19.06757 -48.616852
39.77066 22.814892 25.361717
-25.758921 12.542828 -43.739479
34.496407 18.763134 34.606796
44.689949 3.4137421 -26.925709
32.666847 -36.766624 -17.699879
-21.708622 -13.571449 -45.508572
27.265762 -43.924149 -7.8733864
-14.966873 -10.142895 49.139282
20.320686 -45.621456 -15.370903
15.201988 -24.184214 -43.796688
-15.1478 -49.95562 -4.6087952
-5.4127922 -47.236553 21.609024
32.478317 2.5827599 -40.906727
39.356544 -33.855072 -5.897625
-27.579044 -40.875847 -17.225998
-47.052299 -7.7731323 21.734344
-49.446663 2.882637 16.612534
46.591904 -16.623398 -17.317562
-42.081818 -10.397617 29.357765
-45.103916 -15.577633 -21.302622
-43.889069 -13.757874 25.122719
39.042717 4.0140038 34.568962
-36.290085 -2.8791199 -37.684341
8.6532135 2.9208984 -51.545883
-5.1809921 27.633366 -44.164455
40.814125 32.550777 1.261322
16.508263 47.399342 -14.8979
27.846931 -17.575012 -40.610352
-24.510586 31.796009 -33.642796
37.726433 -26.339609 -24.869514
36.340431 -36.146645 10.121731
-23.500931 -8.8917351 -45.873798
46.829498 -23.123192 -3.4622536
15.651062 -23.598839 43.903175
-49.3204 17.188534 2.7170258
23.674004 33.133762 32.695229
-38.564369 -4.1487198 35.148636
-0.70291138 46.489384 -24.144058
46.710892 -11.293083 20.493233
-36.745029 26.481907 26.297401
47.743408 19.019695 9.897583
-41.712269 17.468868 26.280663
14.68782 -50.109127 1.3134117
-11.819706 -45.930656 -22.198196
38.889534 35.085651 1.3203125
-51.190647 5.1718407 -9.2973289
36.202667 36.298786 -10.529896
3.7966461 34.710621 -38.910877
-8.1409111 -48.88089 -16.940796
23.426521 45.192524 12.066132
-48.402569 -16.110584 -11.207829
44.930351 -26.001501 6.7932625
-29.693443 -32.947536 27.693657
36.806229 -2.4792213 -36.971752
-43.656326 -23.531099 -16.73106
-42.576569 -27.387465 -12.876736
15.249924 10.798962 -48.897488
25.217949 44.756489 10.143478
-12.792339 30.835827 -40.291309
9.1041412 -42.266117 29.306892
37.719666 -21.095528 29.430359
34.789108 -38.462296 7.5390015
19.869095 35.627583 32.79467
-37.58799 27.348423 -24.147005
43.679039 -27.756073 -7.7402077
26.27626 -34.561077 -29.360062
-50.882164 11.981396 2.0202904
-32.639236 35.321156 -20.51754
-26.26424 30.201305 -33.555176
-50.050201 14.416943 -5.5402641
-31.389471 30.723774 -28.263073
16.617599 34.211025 -36.016968
8.2093506 -50.837025 -9.5159035
49.066254 15.409328 -9.0715523
-24.62723 28.704823 -36.006783
33.85672 -12.706558 -37.737827
49.500389 -6.6224823 -15.418282
34.615829 -14.519558 36.375061
-16.653557 19.760006 -45.398369
-3.0229721 45.072529 -26.575047
-35.745991 16.914921 -34.103085
28.717682 -43.298923 6.2435646
37.468033 27.295925 24.37529
-33.827221 29.885075 -26.520075
-34.755703 38.729969 4.4843445
-47.698017 -7.3191452 -20.185444
43.161797 -12.231937 26.899834
16.636292 -49.614578 -1.1873894
41.578865 -4.3505669 31.400925
-35.032135 -16.489269 35.243103
40.288963 0.10112381 33.303589
-8.4064331 -47.933754 -19.28038
20.187996 -46.694851 12.518326
34.588821 -34.13308 -19.403439
13.143806 -44.135803 24.935547
-13.090031 47.152157 -18.407749
35.959152 33.980816 -17.217571
46.476334 -23.818645 -1.8202057
28.333542 19.256542 39.604454
-17.908379 -40.257324 28.121094
32.559746 16.320286 -37.630764
45.385086 -7.840889 -24.610199
1.2457047 36.957874 36.999496
29.005806 13.220501 41.497139
46.375252 -24.12924 2.343586
-5.9470978 35.14423 38.395813
11.489544 15.193027 -48.643993
10.241177 -47.282074 20.103325
-28.133862 -43.756264 -6.1417847
-41.089401 15.309261 -28.612219
-30.851 41.421124 -8.2694397
-44.417976 27.454624 3.635025
25.568878 26.480114 37.065292
-39.038193 33.654385 8.9339294
26.582748 2.2053146 45.10936
45.640198 -8.4975128 24.20752
10.58387 -34.461681 -38.038464
-32.721458 40.685543 3.6983948
19.923767 47.051373 10.966568
9.1435242 -44.546982 25.802498
-14.794044 -34.04731 -36.842003
2.5949554 -21.563587 47.617271
10.044724 27.440495 43.493668
-36.516426 -33.305847 -17.432755
49.890739 3.3570747 15.164604
-14.677349 -22.739889 -44.872765
-38.118996 10.033955 34.359245
24.174316 21.497334 -41.155304
-21.018951 -3.3462868 47.865677
-43.235703 6.4517403 28.882072
25.212875 2.5737038 45.755875
49.731445 12.077953 11.014816
-14.865372 -25.033451 43.375282
6.2284393 48.025372 19.883385
-24.725304 -26.105278 -38.064796
-42.217659 -23.957514 -19.412159
48.624069 18.363842 6.4798431
-26.749859 43.05611 12.83284
17.071274 -46.392845 -17.328732
46.254829 -23.226536 -7.8726311
-32.076614 38.413715 15.508453
-48.104702 -3.6226006 -20.177574
-18.765797 -11.493641 -47.429527
-38.286827 -9.3824844 -34.349098
19.065819 -17.301441 -45.601135
-31.577494 -14.567978 39.024216
-27.364017 -3.0428047 44.45488
2.1596756 27.711964 -44.298843
47.51152 17.842243 12.539719
3.2125778 -49.746059 -15.747059
-8.9364128 25.94286 44.452377
40.063667 -33.637825 2.9084702
-10.482204 -43.099869 27.816826
-34.253353 38.525593 -8.6902771
-27.887379 -40.255451 18.159492
-37.581406 12.772594 -33.92717
26.951279 12.445789 -43.195961
-17.394123 17.845478 46.006538
46.122047 -10.149952 22.695549
36.617233 27.479191 25.127243
-7.7807007 -36.517998 -36.566742
30.621902 18.424129 -38.088631
-35.193291 -23.06341 31.01371
5.4273071 -47.859489 -20.215282
-24.908148 -45.570477 6.4338303
2.5507126 44.48 -27.585464
-39.407654 -5.0076752 34.062935
17.377357 -37.452362 -32.267014
41.375488 14.989635 -28.295446
8.2983742 -25.637421 44.917336
-1.5100174 -24.99127 -45.830322
8.9836655 35.816036 37.167099
8.1094894 2.0174522 -51.658909
-24.378231 -17.097889 -42.98188
-9.0130653 36.050526 36.853973
18.826385 -2.8799438 -48.675724
22.610725 -42.511749 20.189659
-27.227039 21.471287 -39.237782
40.759583 -26.67556 -18.934837
-29.481636 1.4320335 43.249306
-2.6832237 -25.792648 -45.429443
-33.376812 -14.138622 37.734512
26.96273 41.546787 16.569138
25.210083 41.242764 20.144371
0 0 0 1 0 0 0 1 0 0 0 1 0 0 0 0 0 1502 1 0 0
