ply
format ascii 1.0
comment PCL generated
element vertex 37
property float x
property float y
property float z
element face 0
element camera 1
property float view_px
property float view_py
property float view_pz
property float x_axisx
property float x_axisy
property float x_axisz
property float y_axisx
property float y_axisy
property float y_axisz
property float z_axisx
property float z_axisy
property float z_axisz
property float focal
property float scalex
property float scaley
property float centerx
property float centery
property int viewportx
property int viewporty
property float k1
property float k2
end_header
-7.3576159 -36.960266 128.40067
12.666667 1 124.33334
-4.7610388 69.506493 131.15845
-17.333334 -39.083332 138.5
-19.447971 69.710762 146.10582
-8.909091 66.51416 139.56706
-32.685715 82.428574 148.54286
-22.400801 78.120239 144.50301
-64.220001 -40.240002 163.7
-52.773586 -37.098534 161.15933
-42.321739 -36.608696 156.91304
-37.443768 -23.541033 161.56232
-33.259739 56.935066 162.24675
-25.84 58.52 156.39999
-50.265194 72.110497 163.37016
-36.058594 68.742188 159.65625
-25.349827 66.001152 154.03337
-63.16201 80.089386 163.69832
-51.795456 80.911613 160.0867
-81.546761 -34.08873 169.35492
-67.869453 -36.56654 167.13689
-82.214363 -23.417509 175.16722
-67.356071 -23.699423 172.69363
-53.388149 -23.936296 168.41629
-112.49064 -8.0440073 177.31554
-63.821918 -6.9452057 177.00275
-52.753086 -7.4987655 174.10124
-51.766727 52.223328 173.34177
-65.20858 67.056213 170.70415
-52.842869 66.655769 168.4614
-96.335411 80.761848 167.18828
-67.053413 79.869438 166.21959
-91.04908 8.521472 182.61963
-83.426231 2.8415301 181.92896
-72.34375 6.0625 180.90625
-93.494446 21.822222 182.89999
-83 23.014286 182.98572
0 0 0 1 0 0 0 1 0 0 0 1 0 0 0 0 0 37 1 0 0
