ply
format ascii 1.0
comment PCL generated
element vertex 82
property float x
property float y
property float z
element face 0
element camera 1
property float view_px
property float view_py
property float view_pz
property float x_axisx
property float x_axisy
property float x_axisz
property float y_axisx
property float y_axisy
property float y_axisz
property float z_axisx
property float z_axisy
property float z_axisz
property float focal
property float scalex
property float scaley
property float centerx
property float centery
property int viewportx
property int viewporty
property float k1
property float k2
end_header
27.942589 -35.322315 -30.181099
-24.997734 48.234894 1.9877615
51.848618 10.332939 12.400985
13.147145 -11.748856 -51.461395
53.42939 -0.42026553 9.8868513
5.7528157 48.527397 23.741219
-32.955677 12.529099 41.19445
25.418541 47.916824 -3.0775766
-35.872929 -13.198528 38.625954
27.691177 -44.779507 13.251555
-36.179733 -4.1030583 -40.416214
35.63913 -14.430523 -38.336464
53.345558 0.32340589 -10.342015
44.619934 11.438034 28.650635
-43.103001 -20.953445 -25.549417
-31.434376 -28.156963 34.265472
11.392049 -53.056465 3.1396856
-17.48963 -22.701231 -46.0387
29.050644 -0.41166338 45.891586
-23.195724 42.466232 -24.458162
51.754745 -9.8073807 12.945243
11.21248 21.975845 48.43557
-26.199036 -43.813595 18.375
21.604118 24.143166 -43.574551
13.348214 -27.656578 -44.847416
-24.246637 -43.97607 -20.730736
2.7783859 -23.710569 48.76133
-16.380423 41.160141 -31.361105
3.9238174 36.819962 39.811005
27.756088 42.390083 -19.603374
18.397125 1.2839733 -51.126953
-40.890121 -33.733044 12.015624
-1.0608056 -31.873837 -43.923748
-39.187962 -18.630322 32.595291
19.914963 15.858543 -47.959332
-44.788029 14.859352 -26.686239
-20.264746 48.652084 -13.256921
8.1603479 -38.723022 -37.191017
-9.3966818 22.4459 48.571671
44.283485 -10.838112 29.565956
29.58815 -27.03558 -36.570446
-41.045151 -32.911926 13.209205
14.300736 -34.41246 39.609528
-42.968281 -5.9911847 32.541733
13.619447 -28.728493 44.041687
-42.505241 19.049477 27.81163
-24.830492 -8.9686394 -47.464752
-19.156883 -7.4408231 -50.335682
39.537872 19.299301 31.854736
33.039398 42.015381 10.025256
37.616936 -39.016117 -3.6480761
40.12928 32.917984 -16.053925
-14.682452 29.635704 -43.059292
18.102028 -20.822739 46.650352
28.377159 36.843636 -28.114782
11.021115 -31.133356 -42.991665
-37.945061 32.31263 -21.517433
34.180908 -37.731567 18.672592
26.37706 35.405022 -31.447853
37.996414 37.242516 -11.275937
-28.747032 29.636086 -35.271267
42.761757 -8.9965515 -32.301456
0.66578364 45.043549 30.442467
-43.085533 -24.623697 22.206703
44.965263 -30.005726 4.0544462
2.0420692 -35.705875 -40.865444
-21.004045 42.307472 -26.713379
25.812424 46.402412 10.916312
33.078827 -6.1489606 42.594971
0.84862971 23.410118 48.891388
-41.184669 -34.643948 -7.3904505
50.612602 -14.702763 12.921546
28.383812 34.356316 -30.984646
-5.4356074 -44.711983 30.458565
-34.561157 -32.82053 -26.039242
-30.720337 20.363304 39.982292
33.822472 -40.901356 11.665854
50.900688 10.994087 15.471885
28.823677 45.830673 -3.7306528
20.684731 21.267723 45.355515
24.727066 0.97891581 48.370033
42.170662 -26.099365 22.289948
0 0 0 1 0 0 0 1 0 0 0 1 0 0 0 0 0 82 1 0 0
