ply
format ascii 1.0
comment PCL generated
element vertex 20
property float x
property float y
property float z
element face 0
element camera 1
property float view_px
property float view_py
property float view_pz
property float x_axisx
property float x_axisy
property float x_axisz
property float y_axisx
property float y_axisy
property float y_axisz
property float z_axisx
property float z_axisy
property float z_axisz
property float focal
property float scalex
property float scaley
property float centerx
property float centery
property int viewportx
property int viewporty
property float k1
property float k2
end_header
0.70394707 -14.88808 -23.874901
3.0426569 -8.21066 -26.012001
3.6483917 1.5008094 -27.083237
12.703947 4.1119204 -23.624901
1.1363792 9.0038109 -25.462738
14.929222 -16.932035 -14.015007
15.042202 -9.1417704 -19.6343
19.555012 -12.065385 -16.128448
18.703947 2.1119206 -20.069344
12.831476 10.501542 -21.081367
18.703947 6.4196129 -19.778748
6.1291447 20.316647 -17.522537
14.108572 -20.363995 -11.218353
20.303947 -13.88808 -12.624901
-22.296053 -14.88808 5.089386
-23.884289 -12.711609 2.7280426
-22.296053 -14.88808 7.3750992
-19.256054 -15.64808 9.2550964
-22.372976 -13.580387 8.913559
-16.648994 -10.535138 19.316277
0 0 0 1 0 0 0 1 0 0 0 1 0 0 0 0 0 20 1 0 0
