ply
format ascii 1.0
comment PCL generated
element vertex 35
property float x
property float y
property float z
property float nx
property float ny
property float nz
property float curvature
element face 0
element camera 1
property float view_px
property float view_py
property float view_pz
property float x_axisx
property float x_axisy
property float x_axisz
property float y_axisx
property float y_axisy
property float y_axisz
property float z_axisx
property float z_axisy
property float z_axisz
property float focal
property float scalex
property float scaley
property float centerx
property float centery
property int viewportx
property int viewporty
property float k1
property float k2
end_header
-13.460632 -22.606674 -41.111801 -0.25354984 0.1797809 0.95046896 0.025166381
3.6306915 -21.296131 -41.969986 -0.25354987 0.17978102 0.95046902 0.025166159
-24.295952 -13.930439 -40.133804 -0.2613672 0.12719749 0.9568218 0.026647398
-16.066017 -13.72753 -42.507202 -0.26136708 0.12719753 0.95682186 0.026647346
15.093895 -14.900955 -43.730042 -0.31115434 0.13685445 0.94045407 0.022427719
-21.512169 -3.4062405 -43.121872 -0.2600804 0.091079056 0.9612819 0.025643295
-7.0121689 1.8263168 -48.21489 -0.25739878 0.075900398 0.96331978 0.024708161
-21.092812 7.5521231 -42.263275 -0.25739878 0.075900406 0.96331978 0.024708198
-6.7621689 9.5763168 -46.58989 -0.26848623 0.053563457 0.96179318 0.02574202
-17.480919 16.920067 -41.33989 -0.27695125 0.042870425 0.95992708 0.0263936
-7.7621689 16.076317 -45.46489 -0.27695119 0.042870574 0.9599272 0.026393196
9.821167 21.159649 -41.881561 -0.2832942 0.039058492 0.95823735 0.026667308
-11.686592 -29.545776 -36.563721 -0.25354987 0.1797808 0.95046902 0.025166241
-3.7101898 -32.475662 -34.57132 -0.25354996 0.17978078 0.95046896 0.025166158
15.03685 -32.369762 -32.185471 -0.30067572 0.12696771 0.94523722 0.027861169
-20.750267 -20.88797 -38.21489 -0.26136726 0.12719719 0.95682186 0.026647473
25.618263 -22.999771 -34.388809 -0.35510197 0.11105289 0.92820787 0.021011548
-30.23439 -9.0625725 -36.937119 -0.26008031 0.09107925 0.96128184 0.02564319
33.526291 -14.82753 -32.253357 -0.36449903 0.088427663 0.92699564 0.021192914
-29.845512 -5.8403492 -37.548218 -0.26008025 0.09107922 0.96128184 0.025643013
-28.512169 -7.1736832 -38.21489 -0.26008025 0.091079324 0.96128184 0.025643013
34.987831 -2.8165407 -32.21489 -0.37411964 0.050098546 0.92602623 0.019673841
11.737831 34.576317 -31.46489 -0.3050946 0.063511275 0.95020187 0.026732689
26.445816 -31.879566 -24.248505 -0.32133764 0.10612577 0.94099927 0.026146499
32.033287 -28.764591 -22.669434 -0.34421569 0.12054978 0.93111938 0.023243818
36.006351 -24.667511 -20.869217 -0.36449903 0.088427722 0.92699564 0.021192882
41.487831 -13.673683 -20.21489 -0.36449915 0.088427655 0.92699558 0.021193285
42.594975 -2.6022549 -22.179169 -0.37411961 0.050098486 0.92602628 0.019674068
42.972679 7.1293473 -22.033066 -0.37411937 0.050098728 0.9260264 0.019674007
34.202118 23.969173 -24.357742 -0.35886526 0.04272284 0.93241107 0.022061367
40.08783 -20.173683 -18.114883 -0.36449909 0.088427715 0.92699558 0.021192847
41.487831 -18.423683 -17.96489 -0.36449915 0.088427693 0.92699575 0.02119315
41.821163 -14.173683 -18.21489 -0.36449933 0.088427626 0.92699558 0.021193044
44.237831 -3.1736832 -17.21489 -0.36933807 0.068992995 0.92673051 0.020587001
44.821163 7.4929833 -16.71489 -0.37411937 0.050098587 0.92602628 0.019674007
0 0 0 1 0 0 0 1 0 0 0 1 0 0 0 0 0 35 1 0 0
