ply
format ascii 1.0
comment PCL generated
element vertex 69
property float x
property float y
property float z
element face 0
element camera 1
property float view_px
property float view_py
property float view_pz
property float x_axisx
property float x_axisy
property float x_axisz
property float y_axisx
property float y_axisy
property float y_axisz
property float z_axisx
property float z_axisy
property float z_axisz
property float focal
property float scalex
property float scaley
property float centerx
property float centery
property int viewportx
property int viewporty
property float k1
property float k2
end_header
23 -34.25 128.875
41.974789 -3.2268908 134.52101
42.732307 4.2030768 136.64923
-12.5 -44.5625 147.125
10.5 -24.333334 153.5
30 65.909088 161
18.276922 75.415382 168.21538
22.49814 73.721191 165.1041
14.215736 64.895943 173.76143
20.166666 64.5 170.72223
5.7985864 74.533569 177.92932
-3.447619 86.933334 178.36191
-24 98 179
-27 100 179
-65.621796 -5.8974357 186.65384
-62.743591 2.8974359 188.79488
-21 69 189
-14.739926 64.871796 187.76556
-5.5564103 64.682053 184.42821
1.7189542 64.745094 180.96732
-95.905373 74.209717 186.05115
-85.734039 75.69149 187.7766
-79.818184 78.36364 187.90909
-23.91358 75.69136 188.34567
-15.439698 74.39196 186.42964
-5.4327626 74.59169 183.26161
-93.048615 83.083336 183.3125
-84.794487 84.631577 184.66917
-77.506943 84.888885 186.125
-35.131653 85.187675 187.80112
-25.403061 84.73214 186.53316
-15.5 84.322815 184.42476
-92.666664 90 180.66667
-83.920151 93.399239 181.71863
-45.593952 94.62851 185.11015
-35.707157 94.535789 184.76357
-25.489496 94.43277 183.2332
-74.127274 100.29091 182
-64.704079 100.38776 181.7653
-53.8125 100.4375 181.77083
-45.35878 100.94656 182.75572
-35.163265 100.64626 182.18367
-56.933334 7.3333335 190.33333
-55.520767 24.517572 195.52396
-45.75238 24.441269 195.90475
-65.271088 34.518074 196.38554
-55.270031 34.415432 196.21365
-65.364433 44.50729 196.13994
-55.485031 44.520958 196.17366
-48.611652 45.233009 197.1068
-15 44.200001 190.8
-75.738373 54.36628 194.52617
-47.047619 55.320347 196.01299
-23.104166 57.625 193.39583
-16.567099 54.878788 191.16884
-74.813667 64.08696 193.36336
-45.5 64.463539 193.99739
-35.592796 64.725761 194.18283
-25.488094 64.684525 192.72917
-17.966667 62.811111 190.60001
-83.226418 74.735847 190.1132
-72.916664 74.020836 192.5
-65.587601 74.315361 191.60107
-35.695187 74.283424 191.54279
-26.616667 73.762497 190.91251
-65.166664 81.85833 190.71666
-54.661537 80.815384 190.30769
-45.650002 80.637497 190.08749
-36.985294 81.073532 190.25
0 0 0 1 0 0 0 1 0 0 0 1 0 0 0 0 0 69 1 0 0
