ply
format ascii 1.0
comment PCL generated
element vertex 20
property float x
property float y
property float z
property float nx
property float ny
property float nz
property float curvature
element face 0
element camera 1
property float view_px
property float view_py
property float view_pz
property float x_axisx
property float x_axisy
property float x_axisz
property float y_axisx
property float y_axisy
property float y_axisz
property float z_axisx
property float z_axisy
property float z_axisz
property float focal
property float scalex
property float scaley
property float centerx
property float centery
property int viewportx
property int viewporty
property float k1
property float k2
end_header
0.70394707 -14.88808 -23.874901 0.51873946 0.36857915 0.77140057 0.068819806
3.0426569 -8.21066 -26.012001 0.51873946 0.3685793 0.77140045 0.068819806
3.6483917 1.5008094 -27.083237 0.51873934 0.36857942 0.77140051 0.068819806
12.703947 4.1119204 -23.624901 0.5187394 0.36857933 0.77140057 0.068819858
1.1363792 9.0038109 -25.462738 0.51873928 0.36857945 0.77140051 0.068819858
14.929222 -16.932035 -14.015007 0.51873958 0.36857894 0.77140057 0.068819746
15.042202 -9.1417704 -19.6343 0.51873952 0.36857903 0.77140057 0.068819776
19.555012 -12.065385 -16.128448 0.51873934 0.36857939 0.77140045 0.068819858
18.703947 2.1119206 -20.069344 0.51873958 0.36857921 0.77140045 0.06881988
12.831476 10.501542 -21.081367 0.51873934 0.36857918 0.77140057 0.068819776
18.703947 6.4196129 -19.778748 0.51873928 0.36857933 0.77140057 0.068819784
6.1291447 20.316647 -17.522537 0.51873952 0.36857906 0.77140057 0.068819769
14.108572 -20.363995 -11.218353 0.5187397 0.36857873 0.77140063 0.068819769
20.303947 -13.88808 -12.624901 0.51873946 0.36857921 0.77140057 0.068819851
-22.296053 -14.88808 5.089386 0.51873958 0.36857879 0.77140057 0.068819739
-23.884289 -12.711609 2.7280426 0.51873958 0.36857879 0.77140057 0.068819739
-22.296053 -14.88808 7.3750992 0.51873958 0.36857879 0.77140057 0.068819739
-19.256054 -15.64808 9.2550964 0.51873964 0.36857894 0.77140057 0.068819754
-22.372976 -13.580387 8.913559 0.51873958 0.36857879 0.77140057 0.068819739
-16.648994 -10.535138 19.316277 -0.51873964 -0.36857873 -0.77140057 0.068819776
0 0 0 1 0 0 0 1 0 0 0 1 0 0 0 0 0 20 1 0 0
