ply
format ascii 1.0
comment PCL generated
element vertex 69
property float x
property float y
property float z
property float nx
property float ny
property float nz
property float curvature
element face 0
element camera 1
property float view_px
property float view_py
property float view_pz
property float x_axisx
property float x_axisy
property float x_axisz
property float y_axisx
property float y_axisy
property float y_axisz
property float z_axisx
property float z_axisy
property float z_axisz
property float focal
property float scalex
property float scaley
property float centerx
property float centery
property int viewportx
property int viewporty
property float k1
property float k2
end_header
76.051743 -77.984306 52.400055 -0.44879892 0.2823059 -0.84786969 0.004644081
95.026527 -46.961197 58.046066 -0.46753988 0.25330538 -0.84690195 0.0065367422
95.784042 -39.531231 60.174286 -0.47587252 0.2452431 -0.84463078 0.0066781822
40.551739 -88.296806 70.650055 -0.41072738 0.29569528 -0.86247742 0.0058615701
63.551739 -68.067642 77.025055 -0.4410454 0.2867378 -0.85044718 0.0048308205
83.051743 22.174782 84.525055 -0.48930719 -0.053369865 -0.87047696 0.028256549
71.328659 31.681076 91.740433 -0.40112454 -0.29742223 -0.86639428 0.0056390171
75.549881 29.986885 88.62915 -0.39927149 -0.28210995 -0.87235099 0.005820754
67.267471 21.161636 97.286484 -0.39927235 -0.2821095 -0.87235069 0.0058224155
73.218407 20.765694 94.247284 -0.3992725 -0.28210962 -0.87235063 0.0058224504
58.850327 30.799263 101.45438 -0.39927319 -0.28211036 -0.8723501 0.005823683
49.604118 43.199028 101.88696 -0.39856052 -0.31118214 -0.862737 0.005424337
29.051739 54.265694 102.52505 -0.20047759 -0.32658416 -0.92366201 0.0073494026
26.051739 56.265694 102.52505 -0.17508799 -0.32730258 -0.92855656 0.0063342755
-12.570057 -49.631741 110.17889 -0.099325307 0.20460826 -0.9737916 0.03569888
-9.6918526 -40.836872 112.31993 0.015230892 -0.023008868 -0.99961919 0.0093678487
32.051739 25.265694 112.52505 -0.23397151 -0.25960547 -0.93694311 0.0053813434
38.311813 21.137489 111.29062 -0.30644971 -0.24520522 -0.91976243 0.0072475839
47.495327 20.947746 107.95326 -0.36234298 -0.26951745 -0.89222646 0.0063799089
54.770695 21.010788 104.49237 -0.39926818 -0.28210387 -0.87235445 0.0058157775
-42.853634 30.47541 109.5762 0.077072181 -0.23329145 -0.96934777 0.0041240705
-32.682301 31.957184 111.30165 0.075093053 -0.24818911 -0.96579671 0.0036751337
-26.766445 34.629333 111.43414 0.072639912 -0.26391178 -0.96180767 0.0031937743
29.138159 31.957054 111.87073 -0.22652338 -0.27909076 -0.93316424 0.0050878716
37.612041 30.657654 109.9547 -0.28595981 -0.27598497 -0.91763788 0.0059986762
47.618977 30.857384 106.78667 -0.37482145 -0.29009083 -0.88054311 0.0048823431
-39.996876 39.34903 106.83755 0.072075523 -0.25467762 -0.96433622 0.0037621402
-31.742748 40.89727 108.19423 0.066967957 -0.27961904 -0.95777267 0.0032962656
-24.455204 41.154579 109.65005 0.066968419 -0.27961493 -0.95777386 0.0032973355
17.920086 41.453369 111.32617 -0.13788566 -0.30375239 -0.94272047 0.0042638821
27.648678 40.997833 110.05821 -0.20804201 -0.31372502 -0.92644215 0.0049277339
37.551739 40.588509 107.94981 -0.28105342 -0.30179808 -0.91100323 0.0058340379
-39.614925 46.265694 104.19173 0.066967413 -0.27961487 -0.95777392 0.0032974044
-30.868412 49.664932 105.24368 0.056593567 -0.30645174 -0.95020223 0.0040192618
7.4577866 50.894203 108.63521 -0.033545177 -0.33435676 -0.94184935 0.0042823553
17.344582 50.801483 108.28862 -0.11554554 -0.33145684 -0.93636829 0.005149019
27.562243 50.698463 106.75826 -0.18550156 -0.33093089 -0.92524266 0.0062835086
-21.075535 56.556602 105.52505 0.047466885 -0.34968129 -0.93566555 0.0043290774
-11.65234 56.65345 105.29036 0.044062689 -0.36555481 -0.92974621 0.0041163322
-0.76076126 56.703194 105.29588 0.011510035 -0.35646248 -0.93423873 0.0042037661
7.6929588 57.212257 106.28078 -0.033544853 -0.33435693 -0.94184929 0.0042880564
17.888474 56.911957 105.70872 -0.11554669 -0.33145922 -0.93636733 0.0051482972
-3.8815956 -36.400974 113.85838 -0.014920807 -0.011067864 -0.99982738 0.008585237
-2.4690285 -19.216734 119.04901 -0.029566633 -0.0046942313 -0.99955183 0.0079711098
7.2993584 -19.293037 119.42981 -0.056664851 0.0036698647 -0.9983865 0.0079806689
-12.219349 -9.2162323 119.9106 0.054439377 -0.023184186 -0.99824792 0.0088236816
-2.2182922 -9.3188744 119.73871 -0.019531228 -0.0066114548 -0.99978733 0.0076703462
-12.312695 0.77298355 119.66499 0.070677653 -0.06703449 -0.9952442 0.0077622747
-2.4332924 0.78665161 119.69872 -0.012937622 -0.045458417 -0.99888247 0.0069117169
4.4400864 1.498703 120.63185 -0.059617177 -0.072719768 -0.99556899 0.0051674396
38.051739 0.46569443 114.32506 -0.28261861 -0.044691969 -0.95819062 0.0084911659
-22.686634 10.631973 118.05122 0.094837241 -0.17541136 -0.97991669 0.0051910924
6.0041199 11.58604 119.53804 -0.064381041 -0.11828727 -0.99089009 0.0028752119
29.947573 13.890694 116.92088 -0.19544995 -0.16606404 -0.96655166 0.0071312063
36.484642 11.144482 114.69389 -0.2793484 -0.11261696 -0.95356274 0.0088491179
-21.761929 20.352654 116.88841 0.082750484 -0.22786535 -0.97016996 0.0040100543
7.5517387 20.729233 117.52245 -0.058987703 -0.16885349 -0.9838745 0.0031433667
17.458942 20.991455 117.70789 -0.11962596 -0.19028403 -0.97441345 0.0048191915
27.563644 20.950218 116.25423 -0.20622632 -0.20748615 -0.95625323 0.0068275477
35.085072 19.076805 114.12506 -0.26496613 -0.22755796 -0.93702209 0.0072849016
-30.174679 31.001541 113.63826 0.078805171 -0.24653637 -0.9659242 0.0036009883
-19.864925 30.28653 116.02505 0.072639197 -0.26391289 -0.96180749 0.0031935789
-12.535862 30.581055 115.12613 0.072638415 -0.26391143 -0.96180791 0.0031941351
17.356552 30.549118 115.06784 -0.12772477 -0.26912317 -0.9545989 0.003961754
26.435072 30.028191 114.43756 -0.21815163 -0.26274964 -0.939879 0.0053830012
-12.114925 38.124023 114.24171 0.068601072 -0.29277065 -0.9537186 0.002905366
-1.6097984 37.081078 113.83275 0.017697282 -0.30900648 -0.95089525 0.0024313093
7.4017372 36.903191 113.61255 -0.068630166 -0.31031343 -0.94815367 0.0036982484
16.066444 37.339226 113.77505 -0.12903632 -0.29115677 -0.94793314 0.0040096906
0 0 0 1 0 0 0 1 0 0 0 1 0 0 0 0 0 69 1 0 0
