ply
format ascii 1.0
comment PCL generated
element vertex 68
property float x
property float y
property float z
property float nx
property float ny
property float nz
property float curvature
element face 0
element camera 1
property float view_px
property float view_py
property float view_pz
property float x_axisx
property float x_axisy
property float x_axisz
property float y_axisx
property float y_axisy
property float y_axisz
property float z_axisx
property float z_axisy
property float z_axisz
property float focal
property float scalex
property float scaley
property float centerx
property float centery
property int viewportx
property int viewporty
property float k1
property float k2
end_header
93.81208 -56.772537 108.0799 -0.33921677 0.2111059 -0.91671497 0.0036956982
50.607113 -83.418503 118.64388 -0.27519199 0.25822413 -0.92606133 0.0040309895
53.273781 -83.418503 117.51055 -0.27519211 0.25822362 -0.92606151 0.0040311185
77.940445 -75.585167 110.01055 -0.32022625 0.23000032 -0.91899675 0.0031085734
103.19534 -30.300852 111.19682 -0.38622791 0.14984195 -0.9101513 0.0037987032
46.624062 -83.808334 121.82693 -0.27157736 0.26328367 -0.9257037 0.0041315006
58.607113 -73.418503 121.09388 -0.29149264 0.25600961 -0.92167842 0.0025023685
82.82933 31.664837 126.34388 -0.33270335 0.068204366 -0.94056189 0.012940523
77.260956 39.055859 127.52337 -0.29793128 -0.0085893767 -0.95454872 0.014022462
-11.247051 -64.897667 138.4897 -0.079337344 0.24907157 -0.96522999 0.011548213
-13.294849 -64.418503 140.31445 -0.079336606 0.24906984 -0.96523052 0.01154019
-7.3928871 -64.561356 139.84387 -0.13065112 0.27080104 -0.95372796 0.0097104833
-12.329891 -57.012985 141.98561 0.045928817 0.18744871 -0.98119998 0.0033858644
19.940445 -59.085167 141.84387 -0.20200934 0.27555686 -0.93981946 0.0057157278
-12.700176 -48.277874 146.08086 0.045929689 0.18744943 -0.98119986 0.0033883201
-4.5570107 -48.445217 145.53471 0.045928594 0.18744832 -0.98120016 0.0033912768
-23.890537 -38.34338 148.41194 0.059641525 0.18249092 -0.98139697 0.0039509586
-12.528019 -38.209038 148.27631 0.045929428 0.18745057 -0.98119968 0.0033958035
-30.499271 -29.567436 148.50345 0.11937163 0.15798499 -0.98019958 0.0053784018
-25.504002 -32.085167 148.62164 0.074133277 0.1699947 -0.98265254 0.0040579909
-40.792889 -15.218498 148.84387 0.11425794 0.068954289 -0.99105525 0.0035804925
-33.005787 -18.095919 148.84387 0.12568921 0.094973862 -0.98751312 0.0044136108
-39.077099 -9.6027107 148.50177 0.11447875 0.055224434 -0.9918896 0.0028795789
-38.6786 15.105312 148.36768 0.10327 -0.035167236 -0.99403149 0.0030195345
-37.392887 15.581501 148.64388 0.10326789 -0.035167411 -0.99403173 0.0030259399
63.307114 16.181499 139.84387 -0.3154369 0.02252771 -0.94867909 0.011008277
-39.892887 18.081501 148.34387 0.10326721 -0.035167195 -0.99403179 0.0030197429
-37.392887 19.692612 148.0661 0.10289091 -0.046815623 -0.9935903 0.0026439044
37.456738 22.081501 147.62959 -0.21547276 -0.12905809 -0.96794403 0.0083494885
56.162159 22.75581 141.32094 -0.21547155 -0.12905771 -0.9679442 0.0083454568
27.748959 32.163059 147.97508 -0.12477396 -0.14094646 -0.98212302 0.0049683596
54.044613 31.657887 141.43414 -0.21547197 -0.12905744 -0.96794426 0.0083453171
-27.017887 41.706501 146.21887 0.050072208 -0.11940338 -0.99158239 0.0040890705
26.91938 42.023884 144.63197 -0.14681607 -0.20539337 -0.96760452 0.0083930753
36.383369 49.736752 141.19547 -0.18407384 -0.20998482 -0.9602204 0.0092236241
-5.6370735 -37.476639 150.30899 0.045929927 0.18745062 -0.98119962 0.0033957651
-3.0453682 -27.414953 150.9006 0.045927651 0.18744774 -0.98120022 0.0033913935
2.6071129 -24.218498 151.34387 0.0034212896 0.15134269 -0.98847544 0.0038455238
-2.7404823 -18.188553 152.48024 0.048544649 0.091375731 -0.9946326 0.0027196468
3.6581345 -16.122581 152.62959 0.024860984 0.083111592 -0.99623013 0.003192638
-31.965199 -8.0677299 151.21002 0.10683305 0.036022756 -0.99362415 0.0025843522
-22.66013 -8.1146202 153.23396 0.11150795 0.042030986 -0.99287421 0.0023992329
-3.0341301 -7.8676529 154.37494 0.043454204 0.034914888 -0.99844509 0.0028551056
6.1003571 -7.327282 153.75266 0.00042037258 0.012204693 -0.99992543 0.0031003365
12.607113 -3.7518311 154.1772 -0.036543842 -0.018771451 -0.99915576 0.0034987929
-30.681622 0.98291016 150.87909 0.10179374 0.0078302557 -0.99477476 0.0025967697
-22.761425 2.0685692 152.50121 0.10048999 0.00024933412 -0.99493808 0.0024715029
-12.931164 1.9092522 154.4276 0.076589525 -0.014137118 -0.99696249 0.0025953623
-2.5309029 2.2352524 153.46373 0.016108179 -0.026881859 -0.9995088 0.0020350467
7.4207153 2.0928345 153.58443 -0.021230837 -0.035607379 -0.99914032 0.0028879689
15.776604 3.3696365 153.55574 -0.03247961 -0.043027505 -0.99854583 0.0032028372
23.334385 5.945137 152.66205 -0.11437422 -0.075080127 -0.99059647 0.005378285
-21.361416 12.805279 151.34737 0.098085351 -0.058835071 -0.99343735 0.002177309
-12.913532 12.237465 152.83011 0.064848468 -0.064619571 -0.99580073 0.0015830927
6.8644066 12.204842 152.63963 -0.024494961 -0.074762449 -0.99690044 0.002226494
16.993748 12.04451 152.50258 -0.041380573 -0.077058032 -0.99616748 0.0038124411
26.51244 12.409904 151.65749 -0.13764355 -0.11711476 -0.98353362 0.0048130592
33.785683 14.902931 150.09387 -0.13764152 -0.11711377 -0.98353404 0.0048106364
-22.561207 20.244869 150.85378 0.093117885 -0.067192234 -0.9933852 0.0022468099
-12.708103 21.842373 151.33572 0.063219346 -0.097395904 -0.99323577 0.0015407508
-2.5885429 21.960728 151.73276 0.033294685 -0.11020156 -0.99335146 0.002126043
7.1990051 22.265285 152.08981 -0.023387687 -0.12283851 -0.99215108 0.0031745762
16.920109 22.188931 152.05873 -0.076759711 -0.13636917 -0.98767978 0.0044508642
26.536022 21.420364 150.76804 -0.13764419 -0.1171154 -0.98353344 0.0048217662
-10.868298 30.876583 151.14442 0.036200941 -0.13890354 -0.98964399 0.0031700046
-2.8515663 30.887287 150.9761 0.029667744 -0.14294499 -0.98928589 0.003107521
7.8710518 31.481129 151.10037 -0.034925275 -0.15958346 -0.98656642 0.0034383791
-1.5595512 37.581501 150.01054 -0.00027173103 -0.17975095 -0.98371214 0.0042525316
0 0 0 1 0 0 0 1 0 0 0 1 0 0 0 0 0 68 1 0 0
